<?xml version="1.0" encoding="UTF-8"?>
<!DOCTYPE svg PUBLIC "-//W3C//DTD SVG 1.1//EN" "http://www.w3.org/Graphics/SVG/1.1/DTD/svg11.dtd">
<svg xmlns="http://www.w3.org/2000/svg" version="1.1" width="289px" height="291px" style="shape-rendering:geometricPrecision; text-rendering:geometricPrecision; image-rendering:optimizeQuality; fill-rule:evenodd; clip-rule:evenodd" xmlns:xlink="http://www.w3.org/1999/xlink">
<g><path style="opacity:0.994" fill="#e50401" d="M 111.5,-0.5 C 122.833,-0.5 134.167,-0.5 145.5,-0.5C 233.52,6.85304 281.186,54.5197 288.5,142.5C 288.5,153.833 288.5,165.167 288.5,176.5C 278.381,208.231 261.047,235.398 236.5,258C 210.845,277.829 181.845,288.662 149.5,290.5C 139.833,290.5 130.167,290.5 120.5,290.5C 78.9406,281.1 45.7739,259.1 21,224.5C 9.10604,204.651 1.93937,183.317 -0.5,160.5C -0.5,146.167 -0.5,131.833 -0.5,117.5C 15.2783,57.7214 52.6116,18.3881 111.5,-0.5 Z"/></g>
</svg>
