<?xml version="1.0" encoding="UTF-8"?>
<svg id="Layer_1" data-name="Layer 1" xmlns="http://www.w3.org/2000/svg" viewBox="0 0 61 59">
  <defs>
    <style>
      .cls-1 {
        fill: #0e5de6;
      }

      .cls-1, .cls-2 {
        fill-rule: evenodd;
      }

      .cls-2 {
        fill: #f6f9fd;
      }
    </style>
  </defs>
  <path class="cls-1" d="M0,0H61V59H0V0Z"/>
  <path class="cls-2" d="M20,3c1.1-1.1,2.43-1.26,4-.5,2.19,2.69,4.19,5.53,6,8.5,1.19,.93,2.52,1.26,4,1-1.53,3.93-.2,6.26,4,7,.17,1.32-.16,2.49-1,3.5,1.24,1.15,2.24,2.49,3,4,22.67,2,22.67,4,0,6-1,1.67-2,3.33-3,5,1.47,.71,2.14,1.88,2,3.5-4.45-.63-6.11,1.04-5,5-1.33,.67-2.67,1.33-4,2-1.81,2.97-3.81,5.81-6,8.5-1.44,.78-2.78,.61-4-.5,3.68-7.7,6.35-15.7,8-24-5.34-.17-10.68,0-16,.5l-6,6c-.98,.59-1.65,.26-2-1,.81-1.78,1.48-3.62,2-5.5-.32-1.15-.98-1.98-2-2.5,2.33-2.83,2.33-5.83,0-9,1-.67,2-.67,3,0,1.29,2.29,2.96,4.29,5,6,5.37,.68,10.7,.51,16-.5-1.27-8.2-3.94-15.87-8-23Z"/>
</svg>