<?xml version="1.0" encoding="UTF-8"?>
<svg id="Layer_1" data-name="Layer 1" xmlns="http://www.w3.org/2000/svg" viewBox="0 0 60.19 60.23">
  <path d="M20.79,1.33C-.71,9.13-7.01,35.73,8.89,51.63c6.3,6.2,12,8.5,21.4,8.6,9.4,0,15-2.2,21.3-8.6,6.4-6.3,8.6-12,8.6-21.4,0-6.3-.4-9-2.3-12.7-2.9-6-8.9-12-14.8-14.9C37.09-.27,26.89-.87,20.79,1.33Zm18.1,4.9c9.4,3.3,9.4,3.5-.1,13l-8.5,8.5-8.5-8.5c-8.1-8.1-8.3-8.5-6.5-10,5.8-4.3,16-5.6,23.6-3ZM19.09,22.33l7.6,8.1-8.3,8.2c-8.8,8.8-8.7,8.8-11.9,2.6-2.6-5.1-3.1-11.7-1.3-17.7,1.6-5.6,4.2-10.1,5.6-9.6,.4,.2,4.1,3.9,8.3,8.4Zm34.7-3.5c3.3,6,3.4,16.4,.2,22.6-1.2,2.3-2.7,4.5-3.3,4.9-1.1,.7-16.9-14.2-16.9-16.1,0-1.5,15.3-16.6,16.5-16.2,.5,.2,2.1,2.3,3.5,4.8Zm-8.6,32.1c-.9,.9-3.9,2.5-6.7,3.4-6.9,2.3-15.2,1.4-21.4-2.2l-4.7-2.7,8.9-8.4,8.9-8.4,8.3,8.2c7.7,7.7,8.1,8.4,6.7,10.1Z"/>
</svg>