<?xml version="1.0" encoding="UTF-8"?>
<!DOCTYPE svg PUBLIC "-//W3C//DTD SVG 1.1//EN" "http://www.w3.org/Graphics/SVG/1.1/DTD/svg11.dtd">
<svg xmlns="http://www.w3.org/2000/svg" version="1.1" width="2048px" height="2048px" style="shape-rendering:geometricPrecision; text-rendering:geometricPrecision; image-rendering:optimizeQuality; fill-rule:evenodd; clip-rule:evenodd" xmlns:xlink="http://www.w3.org/1999/xlink">
<g><path style="opacity:0.997" fill="#000000" d="M 348.5,-0.5 C 799.167,-0.5 1249.83,-0.5 1700.5,-0.5C 1725.53,2.93815 1750.53,7.77148 1775.5,14C 1799.74,21.4516 1823.07,31.1183 1845.5,43C 1922.36,87.196 1979.86,149.363 2018,229.5C 2023.01,243.2 2028.01,256.867 2033,270.5C 2039.04,294.434 2043.87,318.434 2047.5,342.5C 2047.5,796.5 2047.5,1250.5 2047.5,1704.5C 2043.88,1727.5 2039.38,1750.5 2034,1773.5C 2016.82,1829.22 1988.82,1878.55 1950,1921.5C 1926,1946.5 1899.83,1969 1871.5,1989C 1836.41,2011.87 1798.41,2028.21 1757.5,2038C 1740.05,2041.5 1722.71,2044.67 1705.5,2047.5C 1250.5,2047.5 795.5,2047.5 340.5,2047.5C 267.845,2038.9 202.845,2012.07 145.5,1967C 104.157,1932.99 69.9899,1892.82 43,1846.5C 38.2564,1836.01 33.2564,1825.68 28,1815.5C 23.5201,1802.39 18.8534,1789.39 14,1776.5C 7.85251,1752.25 3.01917,1727.92 -0.5,1703.5C -0.5,1250.5 -0.5,797.5 -0.5,344.5C 3.11822,319.83 7.95156,295.164 14,270.5C 18.5201,258.61 22.8534,246.61 27,234.5C 65.3565,150.478 124.857,85.9775 205.5,41C 231.58,27.3149 258.913,16.9816 287.5,10C 307.903,5.82275 328.236,2.32275 348.5,-0.5 Z M 914.5,342.5 C 987.501,342.333 1060.5,342.5 1133.5,343C 1150.03,345.061 1166.03,349.394 1181.5,356C 1191.17,361.501 1200.51,367.501 1209.5,374C 1243.54,406.184 1269.04,444.351 1286,488.5C 1297.07,524.032 1308.73,559.365 1321,594.5C 1437.79,932.864 1554.95,1271.03 1672.5,1609C 1681.94,1631.77 1684.77,1655.27 1681,1679.5C 1677.99,1689.84 1671.49,1697.01 1661.5,1701C 1657.92,1702.25 1654.25,1703.25 1650.5,1704C 1586.52,1705.63 1522.52,1705.96 1458.5,1705C 1439.52,1706.25 1422.19,1701.75 1406.5,1691.5C 1398.78,1681.41 1392.62,1670.41 1388,1658.5C 1354.45,1557.59 1320.62,1456.92 1286.5,1356.5C 1111.17,1356.5 935.833,1356.5 760.5,1356.5C 726.206,1457.96 692.039,1559.62 658,1661.5C 653.387,1671.9 647.887,1681.73 641.5,1691C 625.573,1701.73 607.907,1706.4 588.5,1705C 524.482,1705.96 460.482,1705.63 396.5,1704C 373.685,1699.27 362.685,1685.11 363.5,1661.5C 364.249,1649.67 366.083,1638 369,1626.5C 376.252,1607.08 382.919,1587.41 389,1567.5C 505.922,1229.87 622.922,892.206 740,554.5C 747.341,528.811 755.674,503.477 765,478.5C 778.942,447.237 796.942,418.57 819,392.5C 839.49,369.5 864.657,354 894.5,346C 901.281,344.679 907.948,343.512 914.5,342.5 Z"/></g>
<g><path style="opacity:0.987" fill="#000000" d="M 1020.5,629.5 C 1029.78,629.243 1038.45,631.409 1046.5,636C 1051.27,641.051 1055.44,646.551 1059,652.5C 1109.68,801.716 1159.85,951.05 1209.5,1100.5C 1085.5,1100.5 961.5,1100.5 837.5,1100.5C 887.192,952.258 937.026,803.924 987,655.5C 990.637,648.39 995.137,641.89 1000.5,636C 1006.89,632.577 1013.56,630.411 1020.5,629.5 Z"/></g>
</svg>
