<?xml version="1.0" encoding="UTF-8"?>
<svg id="Layer_1" data-name="Layer 1" xmlns="http://www.w3.org/2000/svg" viewBox="0 0 70 58.62">
  <path d="M26.5,2.62c-4.4,1.7-11.3,4.2-15.2,5.6-4.3,1.5-7.3,3.2-7.3,4,0,1.2,5.1,1.4,31,1.4s31-.2,31-1.3S45.9,3.12,35.5,.02c-.5-.2-4.6,1-9,2.6Zm22.8,5.1c2.8,1.1,5.4,2.3,5.6,2.5s-9,.4-20.5,.4l-20.9-.1,10.5-4.3L34.5,1.92l4.8,1.9c2.6,1,7.1,2.7,10,3.9Z"/>
  <path d="M32.7,4.32c-.4,.3-.7,1.7-.7,3,0,1.8,.5,2.3,2.5,2.3,1.4,0,2.8-.7,3.1-1.5,1.1-2.7-3-5.8-4.9-3.8Z"/>
  <path d="M6,16.12c0,.8,.5,1.5,1.1,1.5,.9,0,1,4.3,.5,16l-.8,16H62.8l-.5-16c-.4-11.6-.2-16,.6-16,.6,0,1.1-.7,1.1-1.5,0-1.2-1.3-1.5-5.5-1.5s-5.5,.3-5.5,1.5c0,.8,.7,1.5,1.6,1.5,1.5,0,1.6,.9,1,6.1-.3,3.4-.6,10-.6,14.5v8.4h-7.7l-.6-6.8c-1-10.3-.8-22.2,.3-22.2,.6,0,1-.7,1-1.5,0-1.1-1.2-1.5-4.9-1.5-5.2,0-7.3,1.3-4.6,2.7,1.3,.8,1.5,2.9,.9,15.1l-.7,14.2h-7.4l-.8-14.2c-.6-12.5-.5-14.2,.9-15,2.8-1.5,.7-2.8-4.5-2.8-3.7,0-4.9,.4-4.9,1.5,0,.8,.5,1.5,1,1.5,1.1,0,1.3,8.6,.3,20.7l-.6,8.3h-7.4l-.7-14.2c-.5-9.7-.4-14.4,.3-14.6,.6-.2,1.1-1,1.1-1.8,0-1-1.4-1.4-5-1.4-3.8,0-5,.4-5,1.5Z"/>
  <path d="M3,52.12c0,1.3,4.2,1.5,32,1.5s32-.2,32-1.5-4.2-1.5-32-1.5-32,.2-32,1.5Z"/>
  <path d="M0,56.62c0,2,.7,2,35,2s35,0,35-2-.7-2-35-2S0,54.62,0,56.62Z"/>
</svg>