<?xml version="1.0" encoding="UTF-8"?>
<svg id="Layer_1" data-name="Layer 1" xmlns="http://www.w3.org/2000/svg" viewBox="0 0 83.59 83.91">
  <defs>
    <style>
      .cls-1 {
        fill: #a58250;
      }

      .cls-1, .cls-2 {
        fill-rule: evenodd;
      }

      .cls-2 {
        fill: #d0d0c4;
      }
    </style>
  </defs>
  <path class="cls-1" d="M34.95,.12c26.29-1.45,42.46,10.55,48.5,36,1.57,25.38-9.93,41.21-34.5,47.5C23.99,85.89,7.82,75.06,.45,51.12-2.48,24.29,9.02,7.29,34.95,.12Z"/>
  <path class="cls-2" d="M33.95,5.12c14.31-1.51,26.47,2.82,36.5,13,.85,1.51,1.68,3.01,2.5,4.5-2.65,3.99-5.99,7.32-10,10,1.41,.32,2.74-.02,4-1l7.5-7.5c8.61,18.16,5.44,33.99-9.5,47.5-6.89,4.81-14.56,7.31-23,7.5-1.27-6.1-2.27-12.27-3-18.5,.67-3.5,.84-7,.5-10.5-1.03,3.41-1.53,6.91-1.5,10.5,.28,6.3,1.28,12.46,3,18.5-19.32-1.82-31.49-12.15-36.5-31C3.15,26.86,12.98,12.53,33.95,5.12Z"/>
</svg>