<?xml version="1.0" encoding="UTF-8"?>
<!DOCTYPE svg PUBLIC "-//W3C//DTD SVG 1.1//EN" "http://www.w3.org/Graphics/SVG/1.1/DTD/svg11.dtd">
<svg xmlns="http://www.w3.org/2000/svg" version="1.1" width="276px" height="121px" style="shape-rendering:geometricPrecision; text-rendering:geometricPrecision; image-rendering:optimizeQuality; fill-rule:evenodd; clip-rule:evenodd" xmlns:xlink="http://www.w3.org/1999/xlink">
<g><path style="opacity:0.938" fill="#0f0d11" d="M 3.5,-0.5 C 4.16667,-0.5 4.83333,-0.5 5.5,-0.5C 13.456,5.83693 18.1226,14.1703 19.5,24.5C 24.8436,28.1736 30.5103,31.3403 36.5,34C 104.834,37.3267 173.167,37.3267 241.5,34C 255.179,26.4819 263.179,14.9819 265.5,-0.5C 266.167,-0.5 266.833,-0.5 267.5,-0.5C 271.844,10.3944 271.344,21.061 266,31.5C 258.239,36.2964 250.739,41.4631 243.5,47C 208.22,48.9099 172.886,50.0766 137.5,50.5C 101.781,50.0664 66.1143,48.8997 30.5,47C 10.5252,37.5639 1.52521,21.7306 3.5,-0.5 Z"/></g>
<g><path style="opacity:0.935" fill="#161112" d="M 275.5,118.5 C 275.5,119.167 275.5,119.833 275.5,120.5C 270.833,120.5 266.167,120.5 261.5,120.5C 260.694,104.379 253.027,92.8787 238.5,86C 170.834,82.6667 103.168,82.6667 35.5,86C 17.9857,90.847 10.3191,102.347 12.5,120.5C 8.16667,120.5 3.83333,120.5 -0.5,120.5C -0.5,115.5 -0.5,110.5 -0.5,105.5C 1.00876,100.825 2.84209,96.1587 5,91.5C 12.234,83.5959 20.0673,76.4292 28.5,70C 96.8477,69.1583 165.181,69.825 233.5,72C 258.271,77.9309 272.271,93.4309 275.5,118.5 Z"/></g>
</svg>
