<?xml version="1.0" encoding="UTF-8"?>
<svg id="Layer_1" data-name="Layer 1" xmlns="http://www.w3.org/2000/svg" viewBox="0 0 118.17 118.17">
  <defs>
    <style>
      .cls-1, .cls-2 {
        fill: #044da8;
      }

      .cls-2, .cls-3, .cls-4, .cls-5, .cls-6, .cls-7 {
        fill-rule: evenodd;
      }

      .cls-3 {
        fill: #044fa9;
      }

      .cls-4 {
        fill: #054da8;
      }

      .cls-5 {
        fill: #1651ac;
      }

      .cls-6 {
        fill: #1450ac;
      }

      .cls-7 {
        fill: #fcfcfc;
      }
    </style>
  </defs>
  <rect class="cls-1" width="118.17" height="118.17"/>
  <path class="cls-2" d="M3.67,1.31c37-.17,74,0,111,.5l1.5,1.5c.83,37.67,.67,75.34-.5,113-37.29,1.16-74.62,1.33-112,.5l-1.5-1.5C1.51,77.98,1.51,40.64,2.17,3.31c.72-.54,1.22-1.21,1.5-2Z"/>
  <path class="cls-7" d="M47.67,13.31c14.29-1.51,27.96,.66,41,6.5l4.5,4.5c1.99,9.23,3.32,18.56,4,28,.5,13.66,.67,27.33,.5,41h-7c.16,2.69,0,5.35-.5,8-2.66,3.47-5.66,3.8-9,1-.5-2.98-.66-5.98-.5-9H38.67c.16,2.69,0,5.35-.5,8-3.33,4-6.67,4-10,0-.23-2.59-.73-5.09-1.5-7.5-1.63-.49-3.3-.66-5-.5-.72-22.77,.44-45.44,3.5-68,.78-1.79,1.95-3.29,3.5-4.5,6.1-3.42,12.44-5.92,19-7.5Z"/>
  <path class="cls-3" d="M42.67,20.31c11.34-.17,22.67,0,34,.5,1.33,1.33,1.33,2.67,0,4-11.33,.67-22.67,.67-34,0-1.23-1.49-1.23-2.99,0-4.5Z"/>
  <path class="cls-4" d="M31.67,30.31c18.34-.17,36.67,0,55,.5,1.66,2.51,2.49,5.34,2.5,8.5,.67,5.67,.67,11.33,0,17-19.76,1.16-39.59,1.33-59.5,.5-1.05-8.12-.89-16.29,.5-24.5,.72-.54,1.22-1.21,1.5-2Z"/>
  <path class="cls-6" d="M30.67,71.31c7.13,.29,8.8,3.46,5,9.5-6,.99-8.17-1.51-6.5-7.5,.72-.54,1.22-1.21,1.5-2Z"/>
  <path class="cls-5" d="M82.67,71.31c7.13,.29,8.8,3.46,5,9.5-6,.99-8.17-1.51-6.5-7.5,.72-.54,1.22-1.21,1.5-2Z"/>
</svg>