<?xml version="1.0" encoding="UTF-8"?>
<svg id="Layer_1" data-name="Layer 1" xmlns="http://www.w3.org/2000/svg" viewBox="0 0 91.03 89.19">
  <defs>
    <style>
      .cls-1 {
        fill: #fefe74;
      }

      .cls-1, .cls-2, .cls-3, .cls-4 {
        fill-rule: evenodd;
      }

      .cls-2 {
        fill: #fcf4ef;
      }

      .cls-3 {
        fill: #ae1d83;
      }

      .cls-4 {
        fill: #ae1c8d;
      }
    </style>
  </defs>
  <path class="cls-4" d="M38.08,.3c20.3-1.93,36.13,5.4,47.5,22,8.67,18.39,7,35.72-5,52-18.65,16.92-39.15,19.42-61.5,7.5C1.69,67.81-3.81,49.97,2.58,28.3,9.9,13.14,21.73,3.81,38.08,.3Z"/>
  <path class="cls-1" d="M37.08,5.3c22.24-1.97,37.4,7.36,45.5,28,4.31,21.88-3.52,37.71-23.5,47.5-22.56,6.13-39.4-1.04-50.5-21.5-6.31-21.02-.48-37.69,17.5-50,3.3-2.14,6.97-3.48,11-4Z"/>
  <path class="cls-2" d="M37.08,5.3c24.55-3.47,41.05,6.53,49.5,30,2.84,29.99-10.66,46.65-40.5,50C13.93,81.97,.43,64.31,5.58,32.3c3.53-10.69,10.36-18.36,20.5-23C8.1,21.61,2.27,38.28,8.58,59.3c11.1,20.46,27.94,27.63,50.5,21.5,19.98-9.79,27.81-25.62,23.5-47.5C74.48,12.66,59.32,3.33,37.08,5.3Z"/>
  <path class="cls-3" d="M41.08,23.3c10.78-1.63,17.45,2.71,20,13-1.43-.08-2.76,.25-4,1-5.03-9.84-12.03-11.51-21-5-1.31,1.41-2.14,3.08-2.5,5-1.1,6.88-.43,13.55,2,20,5.13,5.49,10.96,6.33,17.5,2.5,2.02-2.58,3.52-5.41,4.5-8.5,1.84,.55,3.34,1.55,4.5,3-5.64,13.55-14.98,16.72-28,9.5-7.85-10.05-9.02-20.88-3.5-32.5,2.86-3.71,6.36-6.38,10.5-8Z"/>
</svg>