<?xml version="1.0" encoding="UTF-8"?>
<svg id="Layer_1" data-name="Layer 1" xmlns="http://www.w3.org/2000/svg" viewBox="0 0 92.08 147">
  <path d="M3.24,147c-3.26-1.68-3.9-3.34-2.64-6.88,11.2-31.44,22.4-62.87,33.6-94.31,.14-.4,.29-.8,.41-1.12,2.67,.96,5.29,1.91,8.05,2.91-.52,1.48-1.07,3.09-1.63,4.69-1.33,3.73-2.65,7.47-4,11.19-.24,.65-.31,1.1,.35,1.59,2.89,2.12,5.73,4.3,8.7,6.54,2.88-2.16,5.75-4.29,8.55-6.5,.26-.21,.24-1.03,.09-1.47-1.75-5.05-3.56-10.09-5.34-15.12-.11-.31-.21-.63-.31-.93,2.65-.95,5.27-1.89,8.01-2.87,.08,.19,.27,.56,.41,.94,11.27,31.61,22.53,63.23,33.8,94.85,1.1,3.1,.34,4.86-2.77,6.49h-2.01c-.81-.49-1.66-.93-2.42-1.49-4.9-3.67-9.78-7.37-14.66-11.06-7.75-5.85-15.5-11.69-23.29-17.57-.38,.26-.73,.49-1.08,.75-10.5,7.84-20.99,15.69-31.51,23.5-2.72,2.02-5.52,3.92-8.28,5.87H3.24Zm27.17-52.76c5.1,3.84,10.03,7.53,14.92,11.28,.72,.55,1.12,.33,1.71-.11,3.85-2.9,7.73-5.77,11.59-8.66,1.05-.78,2.09-1.58,3.22-2.44-5.34-4.03-10.55-7.95-15.77-11.89-5.24,3.96-10.38,7.84-15.67,11.83Zm-6.44,5.93c-3.62,10.16-7.17,20.13-10.72,30.09,.08,.06,.16,.11,.24,.17,8.43-6.29,16.87-12.59,25.43-18.98-5.04-3.8-9.91-7.48-14.95-11.28Zm54.26,30.14c.07-.05,.14-.11,.22-.16-3.5-9.81-6.99-19.61-10.54-29.58-4.97,3.71-9.74,7.27-14.62,10.92,8.41,6.35,16.68,12.59,24.95,18.82ZM29.94,83.41c.08,.07,.15,.14,.23,.21,2.87-2.17,5.75-4.34,8.76-6.61-1.79-1.35-3.47-2.62-5.29-3.99-1.29,3.61-2.5,7-3.7,10.38Zm31.46-.24c.08-.05,.16-.1,.24-.16-1.14-3.19-2.27-6.38-3.47-9.72-1.74,1.32-3.29,2.48-4.93,3.72,2.84,2.14,5.5,4.15,8.16,6.15Z"/>
  <path d="M45.88,13.14c7.14,0,12.83,5.69,12.86,12.83,.03,7.16-5.78,12.99-12.91,12.97-7.08-.02-12.84-5.78-12.88-12.87-.04-7.14,5.75-12.93,12.93-12.92Z"/>
  <path d="M92.08,26.03c-.04,9.81-2.91,18.72-8.63,26.69-1.3,1.81-3.26,2.42-5.16,1.69-1.85-.71-2.99-2.55-2.67-4.57,.12-.77,.48-1.56,.92-2.21,8.83-13.3,9.3-26.91,1.57-40.84-1.31-2.35-.79-4.87,1.29-6.15,2.15-1.31,4.7-.58,6.13,1.8,4.35,7.26,6.54,15.12,6.56,23.59Z"/>
  <path d="M.24,25.97C.27,17.45,2.49,9.54,6.91,2.26,7.95,.57,9.65-.24,11.38,.06c1.8,.32,3.39,1.69,3.47,3.51,.05,1.2-.34,2.55-.92,3.63-6.93,12.72-6.88,25.36,.24,37.96,.54,.95,1.22,1.83,1.82,2.75,1.33,2.08,.9,4.64-1.01,5.99-1.96,1.39-4.58,.94-6.07-1.12C3.15,44.78,.27,35.83,.24,25.97Z"/>
  <path d="M15.92,26c.66-3.2,1.17-6.35,1.99-9.42,.69-2.62,3.06-3.82,5.43-3.08,2.34,.73,3.55,3.09,2.73,5.65-1.48,4.61-1.47,9.18,.02,13.8,.82,2.56-.41,4.88-2.79,5.61-2.33,.71-4.67-.44-5.35-2.99-.83-3.12-1.35-6.32-2.01-9.55Z"/>
  <path d="M76.4,26.11c-.67,3.21-1.18,6.36-2.01,9.43-.69,2.55-3.02,3.71-5.35,3.01-2.38-.73-3.63-3.06-2.81-5.6,1.49-4.61,1.5-9.18,.02-13.8-.82-2.57,.37-4.93,2.71-5.66,2.37-.74,4.75,.46,5.44,3.07,.82,3.12,1.33,6.32,1.99,9.55Z"/>
</svg>