<?xml version="1.0" encoding="UTF-8"?>
<svg id="Layer_1" data-name="Layer 1" xmlns="http://www.w3.org/2000/svg" viewBox="0 0 110 110.06">
  <defs>
    <style>
      .cls-1 {
        fill: #515ce6;
      }

      .cls-1, .cls-2 {
        fill-rule: evenodd;
      }

      .cls-2 {
        fill: #fafbfe;
      }
    </style>
  </defs>
  <path class="cls-1" d="M53,.06c1.37-.16,2.71,.01,4,.5,18.24,17.74,35.91,35.91,53,54.5-17.09,18.59-34.76,36.76-53,54.5-1.33,.67-2.67,.67-4,0C34.76,91.82,17.09,73.65,0,55.06c.17-.67,.33-1.33,.5-2C18.2,35.53,35.7,17.86,53,.06Z"/>
  <path class="cls-2" d="M50.36,30.85c9.65-1.55,17.82,1.11,24.5,8,1.41,2.15,2.24,4.48,2.5,7-3.91,.21-7.74,.88-11.5,2-3.54-5.69-8.37-7.19-14.5-4.5-3.41,3.05-4.74,6.88-4,11.5-1.23,11.28,3.44,15.45,14,12.5,1.76-2.51,3.43-5.01,5-7.5,3.3,1.27,6.63,2.43,10,3.5,.49,7.23-2.84,12.23-10,15-24.27,5.07-35.43-4.77-33.5-29.5,1.99-9.82,7.82-15.82,17.5-18Z"/>
</svg>