<?xml version="1.0" encoding="UTF-8"?>
<svg id="Layer_1" data-name="Layer 1" xmlns="http://www.w3.org/2000/svg" viewBox="0 0 74 74">
  <defs>
    <style>
      .cls-1 {
        fill: #fcfdfe;
      }

      .cls-1, .cls-2 {
        fill-rule: evenodd;
      }

      .cls-2 {
        fill: #175de6;
      }
    </style>
  </defs>
  <path class="cls-2" d="M0,0H74V74H0V0Z"/>
  <path class="cls-1" d="M35,4c2.03-.16,4.03,0,6,.5,.84,1.01,1.17,2.18,1,3.5,8.97-.77,14.47,3.23,16.5,12,.96,10.01,1.96,20.01,3,30,.47,1.43,1.3,2.6,2.5,3.5,2.75,1.12,5.25,2.62,7.5,4.5,1.25,2.51,1.75,5.18,1.5,8-10.02-.33-20.02,0-30,1-2.35,3.12-5.35,3.78-9,2-.89-.82-1.22-1.82-1-3H3c-1.13-6.39,1.54-10.22,8-11.5,1.54-1.58,2.71-3.41,3.5-5.5,.26-11.48,1.59-22.82,4-34,3.29-5.4,8.13-7.73,14.5-7,.03-1.7,.69-3.03,2-4Z"/>
</svg>