<?xml version="1.0" encoding="UTF-8"?>
<svg id="Layer_1" data-name="Layer 1" xmlns="http://www.w3.org/2000/svg" viewBox="0 0 103 106">
  <defs>
    <style>
      .cls-1 {
        fill: #717273;
      }

      .cls-1, .cls-2, .cls-3, .cls-4, .cls-5, .cls-6, .cls-7, .cls-8, .cls-9, .cls-10, .cls-11, .cls-12, .cls-13, .cls-14, .cls-15, .cls-16, .cls-17, .cls-18, .cls-19, .cls-20, .cls-21, .cls-22, .cls-23, .cls-24, .cls-25, .cls-26, .cls-27, .cls-28, .cls-29, .cls-30 {
        fill-rule: evenodd;
      }

      .cls-2 {
        fill: #352121;
      }

      .cls-3 {
        fill: #5b5a5b;
      }

      .cls-4 {
        fill: #c87172;
      }

      .cls-5 {
        fill: #be5956;
      }

      .cls-6 {
        fill: #413535;
      }

      .cls-7 {
        fill: #ec9d9f;
      }

      .cls-8 {
        fill: #dc2428;
      }

      .cls-9 {
        fill: #e98487;
      }

      .cls-10 {
        fill: #5d5b5b;
      }

      .cls-11 {
        fill: #af2121;
      }

      .cls-12 {
        fill: #edbaba;
      }

      .cls-13 {
        fill: #cf151c;
      }

      .cls-14 {
        fill: #b0181a;
      }

      .cls-15 {
        fill: #605e5e;
      }

      .cls-16 {
        fill: #626263;
      }

      .cls-17 {
        fill: #c2474a;
      }

      .cls-18 {
        fill: #9a2d2a;
      }

      .cls-19 {
        fill: #e4dcdc;
      }

      .cls-20 {
        fill: #d6bdbd;
      }

      .cls-21 {
        fill: #464140;
      }

      .cls-22 {
        fill: #f08d90;
      }

      .cls-23 {
        fill: #a61819;
      }

      .cls-24 {
        fill: #d03132;
      }

      .cls-25 {
        fill: #f4e7e7;
      }

      .cls-26 {
        fill: #dacece;
      }

      .cls-27 {
        fill: #b18519;
      }

      .cls-28 {
        fill: #d7c7c7;
      }

      .cls-29 {
        fill: #e7c1c2;
      }

      .cls-30 {
        fill: #d5171e;
      }
    </style>
  </defs>
  <path class="cls-21" d="M94.5,90c3.72-6.6,5.38-13.76,5-21.5-.17-3.83-.33-7.67-.5-11.5-.12-1.94-.95-3.27-2.5-4v-1c1-.33,1.67-1,2-2,1.73-.34,2.23-1.34,1.5-3-5.5-5.68-11.66-10.35-18.5-14,.15-1.05-.02-2.05-.5-3-1.97-1.73-3.81-3.56-5.5-5.5-2.18-.16-4.01-1-5.5-2.5,.14,4.84-1.53,8.84-5,12-.33,6-.67,12-1,18-3.06-2.85-6.56-4.85-10.5-6-1.72-3.23-4.05-6.06-7-8.5-4.33-1.67-7.33-4.67-9-9-2-.67-4-.67-6,0-9.13,8.8-17.8,17.8-26,27,.18,1.38,.85,2.21,2,2.5,.13,.74-.04,1.41-.5,2-1.51-1.67-3.34-2.67-5.5-3,.73,2.52,1.9,4.85,3.5,7,.5,7.66,.67,15.33,.5,23-.63-11.21-2.47-22.21-5.5-33,10.05-10.55,20.55-20.55,31.5-30,.81-1.57,1.14-3.24,1-5h-3c-.76-2.64-.93-5.31-.5-8,4.81-3.15,9.31-6.65,13.5-10.5,6.67-.67,13.33-.67,20,0,3.53,3.19,7.36,6.02,11.5,8.5v10c9.37,8.7,19.04,17.04,29,25-1.86,13.53-3.02,27.19-3.5,41-.7,2.7-2.37,4.37-5,5Z"/>
  <path class="cls-3" d="M81.5,33c-1.27-.59-2.27-.59-3,0,1.3,6.97,1.3,13.97,0,21-2.78,2.79-6.11,4.12-10,4-4.85-4.25-9.85-8.25-15-12,3.94,1.15,7.44,3.15,10.5,6,.33-6,.67-12,1-18,3.47-3.16,5.14-7.16,5-12,1.49,1.5,3.32,2.34,5.5,2.5,1.69,1.94,3.53,3.77,5.5,5.5,.48,.95,.65,1.95,.5,3Z"/>
  <path class="cls-18" d="M67.5,16c.17,4.01,0,8.01-.5,12-3,1.67-6.17,3-9.5,4,2.03-2.08,4.53-3.42,7.5-4,.82-3.38,.66-6.72-.5-10-3.26,.92-6.59,1.25-10,1-1.15,4.36-1.15,8.69,0,13-1.29-.56-2.12-1.56-2.5-3-.17-4.37-.67-8.7-1.5-13-.68-.36-1.35-.7-2-1-1.55-1.22-3.22-1.22-5,0-.69-1.27-1.52-1.27-2.5,0-.5,3.99-.67,7.99-.5,12h-5c-.18-3.73,.16-7.4,1-11,2.72-2.88,5.89-5.21,9.5-7,3.13,2.46,6.3,4.96,9.5,7.5,3.98-.02,7.98-.18,12-.5Z"/>
  <path class="cls-27" d="M48.5,15c.35,2.37,.52,4.7,.5,7-2.04,.92-4.21,1.26-6.5,1,.33-2.67,.67-5.33,1-8,1.78-1.22,3.45-1.22,5,0Z"/>
  <path class="cls-13" d="M57.5,32h-3c-1.15-4.31-1.15-8.64,0-13,3.41,.25,6.74-.08,10-1,1.16,3.28,1.32,6.62,.5,10-2.97,.58-5.47,1.92-7.5,4Z"/>
  <path class="cls-26" d="M51.5,7c1.4,2.21,3.4,3.71,6,4.5,3.99,.17,7.99,0,12-.5v3c-1,.33-1.67,1-2,2-4.02,.32-8.02,.48-12,.5-3.2-2.54-6.37-5.04-9.5-7.5-3.61,1.79-6.78,4.12-9.5,7-1.09-.12-1.75-.79-2-2,2.45-4.28,5.78-7.78,10-10.5,1-.67,2-.67,3,0,1.21,1.38,2.54,2.54,4,3.5Z"/>
  <path class="cls-16" d="M69.5,14v-3c-4.01,.5-8.01,.67-12,.5-2.6-.79-4.6-2.29-6-4.5,1.59,.42,3.09,1.09,4.5,2,1.83-2.7,4.33-3.54,7.5-2.5,1.87,1.37,3.87,2.53,6,3.5,1.28,1.46,1.28,2.79,0,4Z"/>
  <path class="cls-1" d="M81.5,33c6.84,3.65,13,8.32,18.5,14,.73,1.66,.23,2.66-1.5,3v-3c-2.06,.19-4.06,.69-6,1.5-7.34,4.22-14.84,8.05-22.5,11.5-.72-.54-1.22-1.21-1.5-2,3.89,.12,7.22-1.21,10-4,1.3-7.03,1.3-14.03,0-21,.73-.59,1.73-.59,3,0Z"/>
  <path class="cls-23" d="M35.5,36c9.69,8.69,19.35,17.35,29,26,.67,1.33,1.67,2.33,3,3v1c-1.55,.73-2.38,2.06-2.5,4-10.12-9.8-20.46-19.13-31-28l-4.5,1.5c-1.09,2.17-2.42,4.17-4,6-3.77,2.4-7.43,4.9-11,7.5-1.3,2.97-3.3,5.3-6,7v-7c4.3-2.96,8.3-6.3,12-10,1.73-2.89,4.23-4.89,7.5-6,.77-4.27,3.27-5.94,7.5-5Z"/>
  <path class="cls-30" d="M67.5,66c3.38,.24,6.55-.42,9.5-2-.54,3.46-2.71,5.29-6.5,5.5-1.55,1.21-2.72,2.71-3.5,4.5-.67,4.67-.67,9.33,0,14,3.4,.89,6.24-.11,8.5-3,1,.09,1.83-.25,2.5-1,.67,3,.67,6,0,9-3.68,1.29-7.18,2.96-10.5,5-.89,.82-1.22,1.82-1,3-7.18-.34-14.01-2.01-20.5-5-.17-11.68-.67-23.35-1.5-35-7.5-3.31-14.83-3.64-22-1v32c-3.02,.16-6.02,0-9-.5-1.83-.27-3.33-1.11-4.5-2.5-.5-8.33-.67-16.66-.5-25,2.7-1.7,4.7-4.03,6-7,3.57-2.6,7.23-5.1,11-7.5,1.58-1.83,2.91-3.83,4-6l4.5-1.5c10.54,8.87,20.88,18.2,31,28,.12-1.94,.95-3.27,2.5-4Z"/>
  <path class="cls-19" d="M53.5,46c5.15,3.75,10.15,7.75,15,12,.28,.79,.78,1.46,1.5,2,7.66-3.45,15.16-7.28,22.5-11.5,1.94-.81,3.94-1.31,6-1.5v3c-.33,1-1,1.67-2,2-4.1,1.98-8.43,3.48-13,4.5l-3,3c-4.67,.11-9.01,1.28-13,3.5-.92-.63-1.92-.96-3-1-9.65-8.65-19.31-17.31-29-26,.03-1-.47-1.66-1.5-2l-4.5,1.5c-1.93,3.05-4.43,5.55-7.5,7.5-.79,1.24-1.29,2.58-1.5,4-4.88,2.21-8.88,5.54-12,10v1h-1c-1.15-.29-1.82-1.12-2-2.5,8.2-9.2,16.87-18.2,26-27,2-.67,4-.67,6,0,1.67,4.33,4.67,7.33,9,9,2.95,2.44,5.28,5.27,7,8.5Z"/>
  <path class="cls-4" d="M20.5,47c-3.7,3.7-7.7,7.04-12,10,3.12-4.46,7.12-7.79,12-10Z"/>
  <path class="cls-5" d="M35.5,36c-4.23-.94-6.73,.73-7.5,5-3.27,1.11-5.77,3.11-7.5,6,.21-1.42,.71-2.76,1.5-4,3.07-1.95,5.57-4.45,7.5-7.5l4.5-1.5c1.03,.34,1.53,1,1.5,2Z"/>
  <path class="cls-9" d="M22.5,60c3.54-.31,6.88,.02,10,1h-9v31h-1V60Z"/>
  <path class="cls-29" d="M32.5,61c2.95-.28,5.78,.06,8.5,1,.5,11.66,.67,23.33,.5,35-3.13,1.31-6.13,.98-9-1,2.67,.33,5.33,.67,8,1v-33c-1.68-.21-2.68,.45-3,2-3.46-1.59-7.13-2.26-11-2,.13-.88-.2-1.54-1-2-1.31,10.73-1.31,21.39,0,32-1.33,0-2-.67-2-2v-31h9Z"/>
  <path class="cls-12" d="M96.5,52v1c-2.07,.45-3.73,1.45-5,3-2.3,.56-4.63,1.06-7,1.5-3.4,2.4-6.9,4.57-10.5,6.5-2.1,.79-4.27,1.12-6.5,1-1.33-.67-2.33-1.67-3-3,1.08,.04,2.08,.37,3,1,3.99-2.22,8.33-3.39,13-3.5l3-3c4.57-1.02,8.9-2.52,13-4.5Z"/>
  <path class="cls-2" d="M7.5,58h1v6c-.17,8.34,0,16.67,.5,25,1.17,1.39,2.67,2.23,4.5,2.5,2.98,.5,5.98,.66,9,.5,.03,1-.47,1.66-1.5,2-5.21-.86-10.37-1.86-15.5-3v-4c.17-7.67,0-15.34-.5-23-1.6-2.15-2.77-4.48-3.5-7,2.16,.33,3.99,1.33,5.5,3,.46-.59,.63-1.26,.5-2Z"/>
  <path class="cls-11" d="M66.5,101c-1.01,1.26-2.51,1.93-4.5,2-7.07-1.29-13.9-3.29-20.5-6,.17-11.67,0-23.34-.5-35-2.72-.94-5.55-1.28-8.5-1-3.12-.98-6.46-1.31-10-1,7.17-2.64,14.5-2.31,22,1,.83,11.65,1.33,23.32,1.5,35,6.49,2.99,13.32,4.66,20.5,5Z"/>
  <path class="cls-24" d="M91.5,56h3c.16,1.7-.01,3.37-.5,5-2.15-1.34-3.32-.67-3.5,2-2.25,.44-4.41,1.1-6.5,2-1.38,4.54-1.88,9.2-1.5,14h4c-1.45,2.35-3.45,2.69-6,1-.68,.74-1.35,1.41-2,2v-13c-3.73,0-6.73,1.33-9,4-.99,4.47-1.32,9.14-1,14,2.16-.22,3.83-1.22,5-3,1.1-1.1,2.44-1.77,4-2-.67,1-1.33,2-2,3-2.26,2.89-5.1,3.89-8.5,3-.67-4.67-.67-9.33,0-14,.78-1.79,1.95-3.29,3.5-4.5,3.79-.21,5.96-2.04,6.5-5.5-2.95,1.58-6.12,2.24-9.5,2v-1c2.23,.12,4.4-.21,6.5-1,3.6-1.93,7.1-4.1,10.5-6.5,2.37-.44,4.7-.94,7-1.5Z"/>
  <path class="cls-20" d="M90.5,63c1.29,1.55,1.96,3.55,2,6-.33,2-.67,4-1,6-1.92,1.11-3.59,2.45-5,4h-4c-.38-4.8,.12-9.46,1.5-14,2.09-.9,4.25-1.56,6.5-2Z"/>
  <path class="cls-15" d="M87.5,68c1.19,.47,1.86,1.47,2,3,.16,1.82-.51,3.15-2,4-1.21-2.36-1.21-4.69,0-7Z"/>
  <path class="cls-25" d="M26.5,64c-.33,9.18,0,18.18,1,27h1c2.41,1.27,5.07,1.93,8,2,.99-8.82,1.33-17.82,1-27,.32-1.55,1.32-2.21,3-2v33c-2.67-.33-5.33-.67-8-1-2.65,.09-4.98-.58-7-2-1.31-10.61-1.31-21.27,0-32,.8,.46,1.13,1.12,1,2Z"/>
  <path class="cls-8" d="M36.5,76h-3c.72,3.46,1.39,6.96,2,10.5-.33,1.83-.67,3.67-1,5.5-1.91-.85-3.91-1.18-6-1h-1v-25c2.95-.28,5.78,.06,8.5,1,.5,2.98,.66,5.98,.5,9Z"/>
  <path class="cls-14" d="M96.5,53c.33,10.35,0,20.69-1,31-2.65,2.66-5.65,4.82-9,6.5-6.88,3.27-13.55,6.77-20,10.5-.22-1.18,.11-2.18,1-3,3.32-2.04,6.82-3.71,10.5-5,.67-3,.67-6,0-9-.67,.75-1.5,1.09-2.5,1,.67-1,1.33-2,2-3h1c.65-.59,1.32-1.26,2-2,2.55,1.69,4.55,1.35,6-1,1.41-1.55,3.08-2.89,5-4,.33-2,.67-4,1-6-.04-2.45-.71-4.45-2-6,.18-2.67,1.35-3.34,3.5-2,.49-1.63,.66-3.3,.5-5h-3c1.27-1.55,2.93-2.55,5-3Z"/>
  <path class="cls-17" d="M36.5,76v17c-2.93-.07-5.59-.73-8-2,2.09-.18,4.09,.15,6,1,.33-1.83,.67-3.67,1-5.5-.61-3.54-1.28-7.04-2-10.5h3Z"/>
  <path class="cls-7" d="M26.5,64c3.87-.26,7.54,.41,11,2,.33,9.18,0,18.18-1,27v-17c.16-3.02,0-6.02-.5-9-2.72-.94-5.55-1.28-8.5-1v25c-.99-8.82-1.33-17.82-1-27Z"/>
  <path class="cls-28" d="M78.5,82h-1c-1.56,.23-2.9,.9-4,2-1.32-.17-2.49,.16-3.5,1-.5-3.99-.67-7.99-.5-12,2.27-2.67,5.27-4,9-4v13Z"/>
  <path class="cls-10" d="M72.5,75h3v6h-4c-.17-2.12,.16-4.12,1-6Z"/>
  <path class="cls-22" d="M69.5,73c-.17,4.01,0,8.01,.5,12,1.01-.84,2.18-1.17,3.5-1-1.17,1.78-2.84,2.78-5,3-.32-4.86,.01-9.53,1-14Z"/>
  <path class="cls-6" d="M96.5,53c1.55,.73,2.38,2.06,2.5,4,.17,3.83,.33,7.67,.5,11.5,.38,7.74-1.28,14.9-5,21.5-7,3.48-13.67,7.65-20,12.5-4.03,2.35-8.36,3.52-13,3.5-10.3-1.85-20.64-3.51-31-5-7.26-3.57-14.93-6.07-23-7.5-.88-.71-1.55-1.54-2-2.5,5.13,1.14,10.29,2.14,15.5,3,1.03-.34,1.53-1,1.5-2h1c0,1.33,.67,2,2,2,2.02,1.42,4.35,2.09,7,2,2.87,1.98,5.87,2.31,9,1,6.6,2.71,13.43,4.71,20.5,6,1.99-.07,3.49-.74,4.5-2,6.45-3.73,13.12-7.23,20-10.5,3.35-1.68,6.35-3.84,9-6.5,1-10.31,1.33-20.65,1-31Z"/>
</svg>