<?xml version="1.0" encoding="UTF-8"?>
<svg id="Layer_1" data-name="Layer 1" xmlns="http://www.w3.org/2000/svg" viewBox="0 0 89 105.12">
  <defs>
    <style>
      .cls-1 {
        fill: #fefffe;
      }

      .cls-1, .cls-2 {
        fill-rule: evenodd;
      }

      .cls-2 {
        fill: #1f1f1f;
      }
    </style>
  </defs>
  <path class="cls-2" d="M9,0H28V39h30c.94-12.96,1.28-25.96,1-39,6.32,.51,12.65,.85,19,1,.17,14.67,0,29.34-.5,44-2.11,1.6-3.61,3.6-4.5,6,5.18,17.72,10.51,35.39,16,53-28.33,1-56.66,1.33-85,1v-5H0c4.76-16.45,9.43-32.95,14-49.5-.66-2.68-2.16-4.84-4.5-6.5-.5-14.66-.67-29.33-.5-44Z"/>
  <path class="cls-1" d="M68,10c.67,5.16,1,10.49,1,16,.15,5.83-.35,11.5-1.5,17,.41-10.96,.57-21.96,.5-33Z"/>
  <path class="cls-1" d="M24,48H63c4.26,15.77,8.92,31.44,14,47-22.33,1.17-44.66,1.33-67,.5,5.36-15.62,10.03-31.45,14-47.5Z"/>
</svg>