<?xml version="1.0" encoding="UTF-8"?>
<svg id="Layer_1" data-name="Layer 1" xmlns="http://www.w3.org/2000/svg" viewBox="0 0 106 106.06">
  <defs>
    <style>
      .cls-1 {
        fill: #5e63e6;
      }

      .cls-1, .cls-2, .cls-3, .cls-4 {
        fill-rule: evenodd;
      }

      .cls-2 {
        fill: #fcfdfe;
      }

      .cls-3 {
        fill: #515ce6;
      }

      .cls-4 {
        fill: #5e62e6;
      }
    </style>
  </defs>
  <path class="cls-3" d="M51,.06c1.7-.16,3.37,.01,5,.5l49.5,49.5c.67,1.67,.67,3.33,0,5-17.07,17.57-34.57,34.57-52.5,51C35.07,89.63,17.57,72.63,.5,55.06c-.67-1.33-.67-2.67,0-4C17.54,34.19,34.37,17.19,51,.06Z"/>
  <g>
    <path class="cls-2" d="M31.4,29.5c10.67-.17,21.34,0,32,.5,9.04,3.05,11.37,8.88,7,17.5-1.53,1.36-3.2,2.53-5,3.5,9.47,4.24,11.63,11.07,6.5,20.5-1.58,1.54-3.41,2.71-5.5,3.5-11.61,1.39-23.28,1.89-35,1.5V29.5Z"/>
    <path class="cls-4" d="M45.4,40.5c3.35-.17,6.68,0,10,.5,4,2,4,4,0,6-3.32,.5-6.65,.67-10,.5v-7Z"/>
    <path class="cls-1" d="M45.4,56.5c4.01-.17,8.01,0,12,.5,3.7,2.38,3.7,5.04,0,8-3.99,.5-7.99,.67-12,.5v-9Z"/>
  </g>
</svg>