<?xml version="1.0" encoding="UTF-8"?>
<svg id="Layer_1" data-name="Layer 1" xmlns="http://www.w3.org/2000/svg" viewBox="0 0 99.51 90">
  <defs>
    <style>
      .cls-1 {
        fill: #595859;
      }

      .cls-1, .cls-2, .cls-3, .cls-4, .cls-5, .cls-6, .cls-7, .cls-8, .cls-9, .cls-10, .cls-11, .cls-12, .cls-13, .cls-14, .cls-15, .cls-16, .cls-17, .cls-18, .cls-19, .cls-20, .cls-21, .cls-22, .cls-23, .cls-24, .cls-25, .cls-26, .cls-27, .cls-28 {
        fill-rule: evenodd;
      }

      .cls-2 {
        fill: #cec5c6;
      }

      .cls-3 {
        fill: #8d0906;
      }

      .cls-4 {
        fill: #e34343;
      }

      .cls-5 {
        fill: #e22022;
      }

      .cls-6 {
        fill: #f9f3f4;
      }

      .cls-7 {
        fill: #879024;
      }

      .cls-8 {
        fill: #e6252a;
      }

      .cls-9 {
        fill: #fdf4f4;
      }

      .cls-10 {
        fill: #f9adb0;
      }

      .cls-11 {
        fill: #e92225;
      }

      .cls-12 {
        fill: #28281f;
      }

      .cls-13 {
        fill: #020201;
      }

      .cls-14 {
        fill: #b29ea0;
      }

      .cls-15 {
        fill: #f8a3a6;
      }

      .cls-16 {
        fill: #333131;
      }

      .cls-17 {
        fill: #626e17;
      }

      .cls-18 {
        fill: #52681b;
      }

      .cls-19 {
        fill: #80160f;
      }

      .cls-20 {
        fill: #60595a;
      }

      .cls-21 {
        fill: #aec329;
      }

      .cls-22 {
        fill: #1a0906;
      }

      .cls-23 {
        fill: #909d26;
      }

      .cls-24 {
        fill: #e3dbd7;
      }

      .cls-25 {
        fill: #cecbcc;
      }

      .cls-26 {
        fill: #700f0d;
      }

      .cls-27 {
        fill: #7b0e0c;
      }

      .cls-28 {
        fill: #515249;
      }
    </style>
  </defs>
  <path class="cls-27" d="M45.69,5c2.91,1.29,5.91,2.29,9,3v11c-2.74-.35-5.4-1.02-8-2-1.21-1.08-1.87-2.41-2-4v-1c-.3-2.56,.03-4.89,1-7Z"/>
  <path class="cls-8" d="M64.69,6v5c.26,2.29-.08,4.46-1,6.5-2.75,.21-5.25,1.04-7.5,2.5-.77-.07-1.27-.4-1.5-1V8c3.44-.29,6.77-.95,10-2Z"/>
  <path class="cls-2" d="M64.69,11c6.28,3.24,12.94,5.24,20,6v9c-2.63,.59-5.29,.92-8,1,1.53-1.85,3.53-2.85,6-3v-5c-9.9,.94-19.57,3.11-29,6.5-1.11,2.74-1.28,5.57-.5,8.5,1.36-.88,2.86-1.21,4.5-1-1.71,1.24-3.71,1.91-6,2,.51-3.51-.16-6.67-2-9.5-6.29-3.17-12.62-6.01-19-8.5,4.35-2.51,9.02-3.84,14-4,.13,1.59,.79,2.92,2,4,2.6,.98,5.26,1.65,8,2,.23,.6,.73,.93,1.5,1,2.25-1.46,4.75-2.29,7.5-2.5,.92-2.04,1.26-4.21,1-6.5Z"/>
  <path class="cls-1" d="M42.69,4c-.16,2.36,0,4.69,.5,7,.38,.56,.88,.89,1.5,1v1c-4.98,.16-9.65,1.49-14,4,6.38,2.49,12.71,5.33,19,8.5,1.84,2.83,2.51,5.99,2,9.5-7.24-4.08-14.91-7.41-23-10-.16-3.02,0-6.02,.5-9,1.84-1.63,1.34-2.3-1.5-2,3.92-2.22,8.26-3.39,13-3.5,.62-2.28,1.28-4.44,2-6.5Z"/>
  <path class="cls-6" d="M76.69,27c-5.26,1.64-10.26,3.64-15,6h-4c-1.64-.21-3.14,.12-4.5,1-.78-2.93-.61-5.76,.5-8.5,9.43-3.39,19.1-5.56,29-6.5v5c-2.47,.15-4.47,1.15-6,3Z"/>
  <path class="cls-16" d="M27.69,14c2.84-.3,3.34,.37,1.5,2-.5,2.98-.66,5.98-.5,9v6c-4.76,.69-9.42,1.69-14,3h-1c-1.13-.85-2.47-.85-4,0,4.72-3.24,10.05-4.9,16-5-.17-4.35,0-8.68,.5-13,.28-.92,.78-1.58,1.5-2Z"/>
  <path class="cls-11" d="M83.69,64c-10.41,4.94-21.08,9.27-32,13V35c2.29-.09,4.29-.76,6-2h4c2.57-.35,4.91,.15,7,1.5-3.64,1.15-6.98,2.65-10,4.5v1c-.99,9.49-1.33,19.15-1,29,2.31-.49,4.64-.83,7-1-.16-3.35,0-6.68,.5-10,.67-.75,1.5-1.09,2.5-1,1.76,.14,3.43-.19,5-1,.98-2.59,1.31-5.25,1-8-2.42,.31-4.76-.03-7-1,3.67-2.45,7.67-4.11,12-5v-9c-3.35,.16-6.68,0-10-.5,4.11-1.68,8.28-3.18,12.5-4.5,.77,.15,1.44,.48,2,1,.5,11.66,.67,23.33,.5,35Z"/>
  <path class="cls-25" d="M28.69,31c-.24,1.97,.09,3.8,1,5.5,6.05,3.91,12.38,7.08,19,9.5v6c-3.73,.37-7.4,1.04-11,2,.28-1.79-.05-3.46-1-5-6.18-4.38-12.84-7.88-20-10.5-2.52-.94-3.18-2.44-2-4.5,4.58-1.31,9.24-2.31,14-3Z"/>
  <path class="cls-9" d="M76.69,41c-3.9,1.31-7.9,2.31-12,3v6c2.63-.59,5.29-.92,8-1v6c-1.72,.13-3.38,.46-5,1-1.32-.17-2.49,.16-3.5,1-.5,3.32-.66,6.65-.5,10-1.64-.21-3.14,.12-4.5,1-.5-9.33-.67-18.66-.5-28,5.85-1.82,11.85-3.16,18-4v5Z"/>
  <path class="cls-3" d="M51.69,36v41h-2c0-.67-.33-1-1-1v-24c.83,7.49,1.33,15.16,1.5,23,.17-13.17,.67-26.17,1.5-39Z"/>
  <path class="cls-26" d="M28.69,25c8.09,2.59,15.76,5.92,23,10v1c-.83,12.83-1.33,25.83-1.5,39-.17-7.84-.67-15.51-1.5-23v-6c-6.62-2.42-12.95-5.59-19-9.5-.91-1.7-1.24-3.53-1-5.5v-6Z"/>
  <path class="cls-10" d="M76.69,41v-5c-6.15,.84-12.15,2.18-18,4v-1c3.91-.48,7.58-1.65,11-3.5,2.65-.5,5.31-.66,8-.5,.29,2.23-.04,4.23-1,6Z"/>
  <path class="cls-22" d="M13.69,34c-1.44,2.83-1.1,5.5,1,8-1.94,4.22-2.6,8.88-2,14h-1c-1.05,.15-2.05-.02-3-.5,.75-.67,1.09-1.5,1-2.5v-19c1.53-.85,2.87-.85,4,0Z"/>
  <path class="cls-15" d="M58.69,40c-.17,9.34,0,18.67,.5,28,1.36-.88,2.86-1.21,4.5-1-.16-3.35,0-6.68,.5-10,1.01-.84,2.18-1.17,3.5-1v1c-1-.09-1.83,.25-2.5,1-.5,3.32-.66,6.65-.5,10-2.36,.17-4.69,.51-7,1-.33-9.85,0-19.51,1-29Z"/>
  <path class="cls-4" d="M84.69,26v38h-1c.17-11.67,0-23.34-.5-35-.56-.52-1.23-.85-2-1-4.22,1.32-8.39,2.82-12.5,4.5,3.32,.5,6.65,.66,10,.5v9c-4.33,.89-8.33,2.55-12,5,2.24,.97,4.58,1.31,7,1,.31,2.75-.02,5.41-1,8-1.57,.81-3.24,1.14-5,1v-1c1.62-.54,3.28-.87,5-1v-6c-2.71,.08-5.37,.41-8,1v-6c4.1-.69,8.1-1.69,12-3,.96-1.77,1.29-3.77,1-6-2.69-.16-5.35,0-8,.5-3.42,1.85-7.09,3.02-11,3.5,3.02-1.85,6.36-3.35,10-4.5-2.09-1.35-4.43-1.85-7-1.5,4.74-2.36,9.74-4.36,15-6,2.71-.08,5.37-.41,8-1Z"/>
  <path class="cls-20" d="M13.69,34h1c-1.18,2.06-.52,3.56,2,4.5,7.16,2.62,13.82,6.12,20,10.5,.95,1.54,1.28,3.21,1,5-7.91-3.63-15.57-7.63-23-12-2.1-2.5-2.44-5.17-1-8Z"/>
  <path class="cls-19" d="M14.69,42c7.43,4.37,15.09,8.37,23,12,.11,.62,.44,1.12,1,1.5-.65,7.6-1.32,15.1-2,22.5-1.96-.96-3.63-2.29-5-4,.31-6.26-.02-12.42-1-18.5-3.77-1.6-7.44-3.43-11-5.5-.99,5.29-1.33,10.62-1,16-5.43-1.11-7.43-4.45-6-10-.6-5.12,.06-9.78,2-14Z"/>
  <path class="cls-24" d="M31.69,74c-1.53,.07-2.53-.59-3-2,.17-4.35,0-8.68-.5-13-1.73-1.95-3.9-2.95-6.5-3v12c-1.53,.07-2.53-.59-3-2-.33-5.38,0-10.71,1-16,3.56,2.07,7.23,3.9,11,5.5,.98,6.08,1.31,12.24,1,18.5Z"/>
  <path class="cls-5" d="M48.69,52v24c-3.32,.99-6.65,1.99-10,3-.92-.04-1.58-.38-2-1,.68-7.4,1.35-14.9,2-22.5-.56-.38-.89-.88-1-1.5,3.6-.96,7.27-1.63,11-2Z"/>
  <path class="cls-12" d="M9.69,53c.09,1-.25,1.83-1,2.5,.95,.48,1.95,.65,3,.5-2.18,.77-4.52,1.43-7,2-1.33,1-1.33,2,0,3,11.45,8.14,23.12,15.81,35,23,2.71,3.43,5.71,3.77,9,1,4.37-.34,8.03-2,11-5,1.98-.5,3.98-1,6-1.5,7.91-4.12,15.91-7.96,24-11.5,2.88,.47,5.21-.37,7-2.5-.77-1.22-1.77-2.22-3-3-3.24-.62-6.24-1.79-9-3.5V17c-7.06-.76-13.72-2.76-20-6V6c-6.26-4.67-12.59-5-19-1-.97,2.11-1.3,4.44-1,7-.62-.11-1.12-.44-1.5-1-.5-2.31-.66-4.64-.5-7,.08-1.25,.74-2.08,2-2.5,3.1-.92,6.27-1.42,9.5-1.5,4.6,.55,9.1,1.55,13.5,3v7c6.51,1.05,12.68,3.05,18.5,6,.33,13.33,.67,26.67,1,40,3.27,2.21,6.77,4.04,10.5,5.5,2.03,1.4,2.36,3.06,1,5-18.17,7.59-36.17,15.42-54,23.5-2.61-.64-4.94-1.8-7-3.5C24.93,78.04,12.43,69.2,.19,60c-.51-1.5,0-2.66,1.5-3.5,2.94-.7,5.6-1.86,8-3.5Z"/>
  <path class="cls-17" d="M59.69,80c-2.97,3-6.63,4.66-11,5,3.48-1.9,7.15-3.57,11-5Z"/>
  <path class="cls-21" d="M49.69,77c.46,1.38,1.46,2.05,3,2,2.08-1.44,4.41-2.1,7-2v3c-3.85,1.43-7.52,3.1-11,5-3.29,2.77-6.29,2.43-9-1-.79-1.29-1.79-2.46-3-3.5,4.51-.59,8.84-1.76,13-3.5Z"/>
  <path class="cls-7" d="M11.69,56h1c-1.43,5.55,.57,8.89,6,10,.47,1.41,1.47,2.07,3,2,.34,.84,1.01,1.17,2,1,.9,2.23,2.57,3.23,5,3,.47,1.41,1.47,2.07,3,2,1.37,1.71,3.04,3.04,5,4,.42,.62,1.08,.96,2,1,3.35-1.01,6.68-2.01,10-3,.67,0,1,.33,1,1-4.16,1.74-8.49,2.91-13,3.5,1.21,1.04,2.21,2.21,3,3.5-11.88-7.19-23.55-14.86-35-23-1.33-1-1.33-2,0-3,2.48-.57,4.82-1.23,7-2Z"/>
  <path class="cls-23" d="M89.69,67c-8.09,3.54-16.09,7.38-24,11.5-2.02,.5-4.02,1-6,1.5v-3c-2.59-.1-4.92,.56-7,2-1.54,.05-2.54-.62-3-2h2c10.92-3.73,21.59-8.06,32-13h1c.77-.76,1.27-1.76,1.5-3,2.2,.9,4.37,1.9,6.5,3-1.49,.64-2.49,1.64-3,3Z"/>
  <path class="cls-18" d="M84.69,58c2.76,1.71,5.76,2.88,9,3.5,1.23,.78,2.23,1.78,3,3-1.79,2.13-4.12,2.97-7,2.5,.51-1.36,1.51-2.36,3-3-2.13-1.1-4.3-2.1-6.5-3-.23,1.24-.73,2.24-1.5,3v-6Z"/>
  <path class="cls-28" d="M28.69,72c-2.43,.23-4.1-.77-5-3-.99,.17-1.66-.16-2-1v-12c2.6,.05,4.77,1.05,6.5,3,.5,4.32,.67,8.65,.5,13Z"/>
  <path class="cls-13" d="M23.69,69c-1.1-3.91-1.26-7.91-.5-12,.99,1.44,2.32,2.44,4,3,.67,3.67,.67,7.33,0,11-.82-1.32-1.98-1.99-3.5-2Z"/>
  <path class="cls-14" d="M64.69,6c-3.23,1.05-6.56,1.71-10,2-3.09-.71-6.09-1.71-9-3,6.41-4,12.74-3.67,19,1Z"/>
</svg>