<?xml version="1.0" encoding="UTF-8"?>
<svg id="Layer_1" data-name="Layer 1" xmlns="http://www.w3.org/2000/svg" viewBox="0 0 77 104.12">
  <defs>
    <style>
      .cls-1 {
        fill: #db9a59;
      }

      .cls-1, .cls-2, .cls-3, .cls-4 {
        fill-rule: evenodd;
      }

      .cls-2 {
        fill: #f9f8f6;
      }

      .cls-3 {
        fill: #f7f3ee;
      }

      .cls-4 {
        fill: #140e14;
      }
    </style>
  </defs>
  <path class="cls-4" d="M30,0c1-.03,1.66,.47,2,1.5,4.59,12.89,9.26,25.72,14,38.5,4.21-1.44,8.21-3.44,12-6,1.93,1.19,2.76,2.86,2.5,5-3.97,1.73-7.47,4.06-10.5,7,8.81,11.31,17.81,22.48,27,33.5-14.7-.12-28.03-4.46-40-13-2.87-2.54-5.37-5.37-7.5-8.5,4.51,15.36,9.34,30.69,14.5,46-14.68,.33-29.35,0-44-1,8.06-15.79,16.9-31.12,26.5-46-.89-5.35-2.22-10.68-4-16C21.05,26.48,23.55,12.82,30,0Z"/>
  <path class="cls-3" d="M30,13h3c1.75,12.14,4.25,24.14,7.5,36,8.2,7.87,16.7,15.37,25.5,22.5-23.93-1.59-36.93-14.26-39-38,.42-6.93,1.42-13.76,3-20.5Z"/>
  <path class="cls-2" d="M33,88c-.33,2.73,.34,5.06,2,7-.17,1.32,.16,2.49,1,3.5-9.67,.67-19.33,.67-29,0,6.5-10.66,13.17-21.16,20-31.5,.59,.21,1.09,.54,1.5,1,1.51,6.69,3.01,13.35,4.5,20Z"/>
  <path class="cls-1" d="M33,88c1.42,2.01,2.09,4.35,2,7-1.66-1.94-2.33-4.27-2-7Z"/>
</svg>