<?xml version="1.0" encoding="UTF-8"?>
<!DOCTYPE svg PUBLIC "-//W3C//DTD SVG 1.1//EN" "http://www.w3.org/Graphics/SVG/1.1/DTD/svg11.dtd">
<svg xmlns="http://www.w3.org/2000/svg" version="1.1" width="430px" height="430px" style="shape-rendering:geometricPrecision; text-rendering:geometricPrecision; image-rendering:optimizeQuality; fill-rule:evenodd; clip-rule:evenodd" xmlns:xlink="http://www.w3.org/1999/xlink">
<g><path style="opacity:0.996" fill="#e20980" d="M 34.5,-0.5 C 122.833,-0.5 211.167,-0.5 299.5,-0.5C 330.675,0.203558 362.009,1.03689 393.5,2C 405.916,6.62054 415.749,14.4539 423,25.5C 426.023,82.9631 428.19,140.296 429.5,197.5C 429.5,235.167 429.5,272.833 429.5,310.5C 428.596,337.669 427.763,365.002 427,392.5C 420.833,409.333 409.333,420.833 392.5,427C 360.338,427.849 328.338,428.683 296.5,429.5C 241.833,429.5 187.167,429.5 132.5,429.5C 100.329,428.688 67.9956,427.854 35.5,427C 18.1684,421.001 7.00178,409.168 2,391.5C 0.940655,372.025 0.107321,352.692 -0.5,333.5C -0.5,252.5 -0.5,171.5 -0.5,90.5C 0.0808886,71.9673 0.914222,53.3006 2,34.5C 8.91278,19.0909 19.7461,7.42421 34.5,-0.5 Z"/></g>
<g><path style="opacity:1" fill="#fdfbfb" d="M 224.5,33.5 C 239.005,43.8015 249.171,57.4681 255,74.5C 277.193,132.648 269.527,186.314 232,235.5C 223.697,244.804 215.031,253.804 206,262.5C 183.987,234.981 170.82,203.648 166.5,168.5C 167.855,154.602 171.355,141.269 177,128.5C 190.813,116.028 203.147,102.361 214,87.5C 218.464,69.6801 221.964,51.6801 224.5,33.5 Z"/></g>
<g><path style="opacity:1" fill="#fdf6f8" d="M 288.5,130.5 C 306.809,160.994 313.975,193.994 310,229.5C 304.5,241.667 295.667,250.5 283.5,256C 264.107,262.12 244.44,263.453 224.5,260C 263.511,229.483 284.177,189.316 286.5,139.5C 287.167,136.5 287.833,133.5 288.5,130.5 Z"/></g>
<g><path style="opacity:1" fill="#f5add2" d="M 288.5,130.5 C 287.833,133.5 287.167,136.5 286.5,139.5C 286.18,136.102 286.513,132.768 287.5,129.5C 288.107,129.624 288.44,129.957 288.5,130.5 Z"/></g>
<g><path style="opacity:1" fill="#fcf5f6" d="M 140.5,170.5 C 144.774,192.67 150.274,214.67 157,236.5C 161.896,247.467 169.062,256.633 178.5,264C 158.729,262.362 141.563,254.862 127,241.5C 120.315,230.659 118.649,218.992 122,206.5C 126.36,193.444 132.527,181.444 140.5,170.5 Z"/></g>
<g><path style="opacity:1" fill="#fdfafb" d="M 310.5,262.5 C 330.186,263.383 343.02,273.049 349,291.5C 322.246,305.628 295.079,318.794 267.5,331C 302.755,344.642 338.421,357.308 374.5,369C 379.036,389.478 370.702,399.478 349.5,399C 302.647,386.12 255.98,372.62 209.5,358.5C 171.692,370.047 134.359,382.88 97.5,397C 66.275,400.889 58.6083,389.222 74.5,362C 100.92,353.307 126.92,343.64 152.5,333C 134.802,322.984 116.469,314.318 97.5,307C 90.4389,301.684 87.1056,294.517 87.5,285.5C 87.2998,280.964 88.1331,276.631 90,272.5C 94.5024,266.415 100.336,264.915 107.5,268C 139.148,281.99 171.148,295.156 203.5,307.5C 240.465,295.406 276.132,280.406 310.5,262.5 Z"/></g>
</svg>
