<?xml version="1.0" encoding="UTF-8"?>
<svg id="Layer_1" data-name="Layer 1" xmlns="http://www.w3.org/2000/svg" viewBox="0 0 112 87">
  <defs>
    <style>
      .cls-1 {
        fill: #190914;
      }

      .cls-1, .cls-2, .cls-3, .cls-4, .cls-5, .cls-6, .cls-7, .cls-8, .cls-9, .cls-10, .cls-11, .cls-12 {
        fill-rule: evenodd;
      }

      .cls-2 {
        fill: #f4fafa;
      }

      .cls-3 {
        fill: #1f1718;
      }

      .cls-4 {
        fill: #faf9f9;
      }

      .cls-5 {
        fill: #1a0913;
      }

      .cls-6 {
        fill: #24181e;
      }

      .cls-7 {
        fill: #130b10;
      }

      .cls-8 {
        fill: #22110d;
      }

      .cls-9 {
        fill: #f3f3f3;
      }

      .cls-10 {
        fill: #26181c;
      }

      .cls-11 {
        fill: #040002;
      }
    </style>
  </defs>
  <path class="cls-8" d="M0,0H112V87H0V0Z"/>
  <path class="cls-2" d="M2,2H110V85H2V2Z"/>
  <path class="cls-3" d="M8,7H104V80H8V7Z"/>
  <path class="cls-4" d="M10,9H102V77H10V9Z"/>
  <path class="cls-7" d="M54,16c1.37-.16,2.71,.01,4,.5,8.79,4.73,17.79,8.9,27,12.5v3c-19.34,.33-38.68,0-58-1,8.87-5.27,17.87-10.27,27-15Z"/>
  <path class="cls-9" d="M55,19c7.21,2.6,14.21,5.77,21,9.5-13.95,1.58-27.95,1.91-42,1,7.32-3.04,14.32-6.54,21-10.5Z"/>
  <path class="cls-5" d="M30,34h7c-2.67,9.33-2.67,18.67,0,28h-7c2.67-9.33,2.67-18.67,0-28Z"/>
  <path class="cls-10" d="M45,34h6c-1.33,9.33-1.33,18.67,0,28h-6c1.33-9.33,1.33-18.67,0-28Z"/>
  <path class="cls-6" d="M61,34h6c-1.33,9.33-1.33,18.67,0,28h-6c1.33-9.33,1.33-18.67,0-28Z"/>
  <path class="cls-1" d="M75,34h7c-2.67,9.33-2.67,18.67,0,28h-7c2.67-9.33,2.67-18.67,0-28Z"/>
  <path class="cls-12" d="M29,64c18.01-.33,36.01,0,54,1-9,.33-18,.67-27,1-9.36,0-18.36-.67-27-2Z"/>
  <path class="cls-11" d="M27,69h58v3H27v-3Z"/>
</svg>