<?xml version="1.0" encoding="UTF-8"?>
<svg id="Layer_1" data-name="Layer 1" xmlns="http://www.w3.org/2000/svg" viewBox="0 0 219.12 162">
  <defs>
    <style>
      .cls-1 {
        fill: #d2ffbd;
      }

      .cls-1, .cls-2, .cls-3 {
        fill-rule: evenodd;
      }

      .cls-2 {
        fill: #d2febd;
      }

      .cls-3 {
        fill: #6cbb42;
      }
    </style>
  </defs>
  <path class="cls-3" d="M17.12,0V6h-3V3H1.12V0H17.12Z"/>
  <path class="cls-2" d="M17.12,0H82.12V3h3v3h4V3h12v3h3V0h60V3h3v3h3V3h12v3h3V0h34V63h-5v-3h-4v3h-3v3h12v72c-1.19,.47-1.86,1.47-2,3,.14,1.53,.81,2.53,2,3v9h-2c-.34,1.98,.32,3.32,2,4v5h-37c-1.42-1.81-3.42-2.47-6-2v-3h-12v3c1.68-.21,2.68,.45,3,2H101.12c-1.42-1.81-3.42-2.47-6-2v-3h-13v3c1.68-.21,2.68,.45,3,2H14.12c-1.78-1.84-4.11-2.51-7-2v-3H.12v-13H7.12v-3h-3v-6H1.12c.24,1.29-.1,2.29-1,3v-19H7.12v3h7v-3h-4v-3h-3v-3h-3v-3H.12v-10H4.12v-3H1.12c.29-2.24-.04-4.24-1-6-.32-5.53,.01-10.86,1-16H14.12v3h3v-6h-7v-3H.12v-13H7.12v-3H.12v-6H7.12v3h7v-3h-4v-3h-3v-3h-3v-3H.12v-10H4.12v-3H1.12c.29-2.24-.04-4.24-1-6-.32-5.53,.01-10.86,1-16H14.12v3h3V0Z"/>
  <path class="cls-3" d="M82.12,0h3V3h-3V0Z"/>
  <path class="cls-1" d="M85.12,0h4V3h-4V0Z"/>
  <path class="cls-3" d="M89.12,0h15V6h-3V3h-12V0Z"/>
  <path class="cls-3" d="M164.12,0h3V3h-3V0Z"/>
  <path class="cls-1" d="M167.12,0h3V3h-3V0Z"/>
  <path class="cls-3" d="M170.12,0h15V6h-3V3h-12V0Z"/>
  <path class="cls-3" d="M51.12,6h-3V3h3v3Z"/>
  <path class="cls-3" d="M51.12,6h3V3h3v3h7v4h-13V6Z"/>
  <path class="cls-3" d="M85.12,3h4v3h-4V3Z"/>
  <path class="cls-3" d="M139.12,6h-4V3h4v3Z"/>
  <path class="cls-3" d="M139.12,6h3V3h3v3h6v4h-12V6Z"/>
  <path class="cls-3" d="M167.12,3h3v3h-3V3Z"/>
  <path class="cls-3" d="M48.12,6v4h-3V6h3Z"/>
  <path class="cls-3" d="M135.12,6v4h-3V6h3Z"/>
  <path class="cls-3" d="M214.12,6h3v4h-3V6Z"/>
  <path class="cls-3" d="M26.12,13h-3v-3h3v3Z"/>
  <path class="cls-3" d="M39.12,16h-4v3h-9v-6h3v-3h6v3h4v3Z"/>
  <path class="cls-3" d="M114.12,13h-4v-3h4v3Z"/>
  <path class="cls-3" d="M126.12,16h-3v3h-9v-6h3v-3h6v3h3v3Z"/>
  <path class="cls-3" d="M195.12,13h-3v-3h3v3Z"/>
  <path class="cls-3" d="M207.12,16h-3v3h-9v-6h3v-3h6v3h3v3Z"/>
  <path class="cls-3" d="M17.12,13h3v3h3v3h-3v3h-3v-3h-3v-3h3v-3Z"/>
  <path class="cls-3" d="M104.12,13h3v3h3v3h-3v3h-3v-3h-3v-3h3v-3Z"/>
  <path class="cls-3" d="M185.12,13h4v3h3v3h-3v3h-4v-3h-3v-3h3v-3Z"/>
  <path class="cls-3" d="M39.12,16h3v3h3v3h-6v-6Z"/>
  <path class="cls-3" d="M126.12,16h3v3h3v3h-6v-6Z"/>
  <path class="cls-3" d="M207.12,16h3v3h4v3h-7v-6Z"/>
  <path class="cls-3" d="M.12,19c.96,1.76,1.29,3.76,1,6h3v3H.12v-9Z"/>
  <path class="cls-3" d="M57.12,19h3v3h4v-3h3v3h6v3h-19v-3h3v-3Z"/>
  <path class="cls-3" d="M92.12,25v3h-16v-3h3v-3h6v-3h4v6h3Z"/>
  <path class="cls-3" d="M145.12,19h3v3h3v-3h3v3h6v3h-18v-3h3v-3Z"/>
  <path class="cls-3" d="M173.12,25v3h-9v-6h3v-3h3v6h3Z"/>
  <path class="cls-3" d="M4.12,25v-3h3v3h-3Z"/>
  <path class="cls-3" d="M92.12,25v-3h3v3h-3Z"/>
  <path class="cls-3" d="M173.12,25v-3h3v3h-3Z"/>
  <path class="cls-3" d="M51.12,28h-3v-3h3v3Z"/>
  <path class="cls-3" d="M139.12,28h-4v-3h4v3Z"/>
  <path class="cls-3" d="M23.12,35v3H7.12v-3h3v-4h7v-3h3v7h3Z"/>
  <path class="cls-3" d="M48.12,28v7h-6v-4h-3v-3h9Z"/>
  <path class="cls-3" d="M51.12,28h6v3h-3v4h-3v-7Z"/>
  <path class="cls-3" d="M110.12,35v3h-15v-3h3v-4h6v-3h3v7h3Z"/>
  <path class="cls-3" d="M135.12,28v7h-6v-4h-3v-3h9Z"/>
  <path class="cls-3" d="M139.12,28h6v3h-3v4h-3v-7Z"/>
  <path class="cls-3" d="M192.12,35v3h-16v-3h3v-4h6v-3h4v7h3Z"/>
  <path class="cls-3" d="M210.12,35v-4h-3v-3h10v7h-7Z"/>
  <path class="cls-3" d="M23.12,35v-4h3v4h-3Z"/>
  <path class="cls-3" d="M39.12,31v4h-4v3h-3v-7h7Z"/>
  <path class="cls-1" d="M39.12,31h3v4h-3v-4Z"/>
  <path class="cls-1" d="M57.12,31v4h-3v-4h3Z"/>
  <path class="cls-3" d="M57.12,31h3v4h4v3h-10v-3h3v-4Z"/>
  <path class="cls-3" d="M110.12,35v-4h4v4h-4Z"/>
  <path class="cls-3" d="M126.12,31v4h-3v3h-3v-7h6Z"/>
  <path class="cls-1" d="M126.12,31h3v4h-3v-4Z"/>
  <path class="cls-1" d="M145.12,31v4h-3v-4h3Z"/>
  <path class="cls-3" d="M145.12,31h3v4h3v3h-9v-3h3v-4Z"/>
  <path class="cls-3" d="M192.12,35v-4h3v4h-3Z"/>
  <path class="cls-3" d="M207.12,31v4h-3v3h-3v-7h6Z"/>
  <path class="cls-1" d="M207.12,31h3v4h-3v-4Z"/>
  <path class="cls-3" d="M39.12,35h3v3h-3v-3Z"/>
  <path class="cls-3" d="M126.12,35h3v3h-3v-3Z"/>
  <path class="cls-3" d="M207.12,35h3v3h-3v-3Z"/>
  <path class="cls-3" d="M.12,38H4.12v3h3v3h3v3h4v3H7.12v-3H.12v-9Z"/>
  <path class="cls-3" d="M76.12,44h3v-6h3v3h3v-3h7v3h3v3h3v3h3v3h-6v-3h-19v-3Z"/>
  <path class="cls-3" d="M167.12,38h6v3h3v3h3v3h3v3h-6v-3h-12v-3h-7v-3h10v-3Z"/>
  <path class="cls-3" d="M76.12,44h-6v-3h6v3Z"/>
  <path class="cls-3" d="M45.12,50v-6h3v6h-3Z"/>
  <path class="cls-3" d="M70.12,53v3h-13v-6h-6v-6h3v3h6v3h4v3h6Z"/>
  <path class="cls-3" d="M132.12,50v-6h3v6h-3Z"/>
  <path class="cls-3" d="M157.12,53v3h-12v-6h-6v-6h3v3h6v3h3v3h6Z"/>
  <path class="cls-3" d="M214.12,50v-6h3v6h-3Z"/>
  <path class="cls-3" d="M42.12,50h-3v-3h3v3Z"/>
  <path class="cls-3" d="M129.12,50h-3v-3h3v3Z"/>
  <path class="cls-3" d="M210.12,50h-3v-3h3v3Z"/>
  <path class="cls-3" d="M26.12,50h3v3h-3v-3Z"/>
  <path class="cls-3" d="M42.12,50h3v3h-3v-3Z"/>
  <path class="cls-3" d="M70.12,53v-3h6v3h-6Z"/>
  <path class="cls-3" d="M114.12,50h3v3h-3v-3Z"/>
  <path class="cls-3" d="M129.12,50h3v3h-3v-3Z"/>
  <path class="cls-3" d="M157.12,53v-3h7v3h-7Z"/>
  <path class="cls-3" d="M195.12,50h3v3h-3v-3Z"/>
  <path class="cls-3" d="M210.12,50h4v3h-4v-3Z"/>
  <path class="cls-3" d="M.12,53H7.12v3H.12v-3Z"/>
  <path class="cls-3" d="M10.12,53h4v7h3v-4h3v4h6v3H7.12v-3h3v-7Z"/>
  <path class="cls-3" d="M51.12,53h3v3h-3v-3Z"/>
  <path class="cls-3" d="M85.12,53h10v3h-10v-3Z"/>
  <path class="cls-3" d="M98.12,53h3v7h3v-4h3v4h7v3h-19v-3h3v-7Z"/>
  <path class="cls-3" d="M139.12,53h3v3h-3v-3Z"/>
  <path class="cls-3" d="M167.12,53h9v3h-9v-3Z"/>
  <path class="cls-3" d="M179.12,53h3v7h3v-4h4v4h6v3h-19v-3h3v-7Z"/>
  <path class="cls-3" d="M39.12,63h-4v-3h4v3Z"/>
  <path class="cls-3" d="M51.12,66h-12v-3h3v-3h3v3h6v3Z"/>
  <path class="cls-3" d="M67.12,69v-3h-3v-3h9v-3h3v9h-9Z"/>
  <path class="cls-3" d="M126.12,63h-3v-3h3v3Z"/>
  <path class="cls-3" d="M139.12,66h-13v-3h3v-3h3v3h7v3Z"/>
  <path class="cls-3" d="M154.12,69v-3h-3v-3h9v-3h4v9h-10Z"/>
  <path class="cls-3" d="M207.12,63h-3v-3h3v3Z"/>
  <path class="cls-3" d="M219.12,63v3h-12v-3h3v-3h4v3h5Z"/>
  <path class="cls-3" d="M35.12,63v6h-3v-6h3Z"/>
  <path class="cls-3" d="M123.12,63v6h-3v-6h3Z"/>
  <path class="cls-3" d="M204.12,63v6h-3v-6h3Z"/>
  <path class="cls-3" d="M51.12,66h3v3h-3v-3Z"/>
  <path class="cls-3" d="M64.12,66h3v6h-10v-6h7Z"/>
  <path class="cls-1" d="M64.12,66h3v3h-3v-3Z"/>
  <path class="cls-3" d="M139.12,66h3v3h-3v-3Z"/>
  <path class="cls-3" d="M151.12,66h3v6h-9v-6h6Z"/>
  <path class="cls-1" d="M151.12,66h3v3h-3v-3Z"/>
  <path class="cls-3" d="M.12,69H10.12v3h7v6h-3v-3H1.12c-.33-2-.67-4-1-6Z"/>
  <path class="cls-3" d="M89.12,75v-3h-4v-3h13v3h6v6h-3v-3h-12Z"/>
  <path class="cls-3" d="M170.12,75v-3h-3v-3h12v3h6v6h-3v-3h-12Z"/>
  <path class="cls-3" d="M85.12,72v3h-3v-3h3Z"/>
  <path class="cls-1" d="M85.12,72h4v3h-4v-3Z"/>
  <path class="cls-3" d="M167.12,72v3h-3v-3h3Z"/>
  <path class="cls-1" d="M167.12,72h3v3h-3v-3Z"/>
  <path class="cls-3" d="M51.12,78h-3v-3h3v3Z"/>
  <path class="cls-3" d="M51.12,78h3v-3h3v3h7v3h-13v-3Z"/>
  <path class="cls-3" d="M85.12,75h4v3h-4v-3Z"/>
  <path class="cls-3" d="M139.12,78h-4v-3h4v3Z"/>
  <path class="cls-3" d="M139.12,78h3v-3h3v3h6v3h-12v-3Z"/>
  <path class="cls-3" d="M167.12,75h3v3h-3v-3Z"/>
  <path class="cls-3" d="M48.12,78v3h-3v-3h3Z"/>
  <path class="cls-3" d="M135.12,78v3h-3v-3h3Z"/>
  <path class="cls-3" d="M214.12,78h3v3h-3v-3Z"/>
  <path class="cls-3" d="M26.12,85h-3v-4h3v4Z"/>
  <path class="cls-3" d="M39.12,88h-4v3h-9v-6h3v-4h6v4h4v3Z"/>
  <path class="cls-3" d="M114.12,85h-4v-4h4v4Z"/>
  <path class="cls-3" d="M126.12,88h-3v3h-9v-6h3v-4h6v4h3v3Z"/>
  <path class="cls-3" d="M195.12,85h-3v-4h3v4Z"/>
  <path class="cls-3" d="M207.12,88h-3v3h-9v-6h3v-4h6v4h3v3Z"/>
  <path class="cls-3" d="M17.12,85h3v3h3v3h-3v3h-3v-3h-3v-3h3v-3Z"/>
  <path class="cls-3" d="M104.12,85h3v3h3v3h-3v3h-3v-3h-3v-3h3v-3Z"/>
  <path class="cls-3" d="M185.12,85h4v3h3v3h-3v3h-4v-3h-3v-3h3v-3Z"/>
  <path class="cls-3" d="M39.12,88h3v3h3v3h-6v-6Z"/>
  <path class="cls-3" d="M126.12,88h3v3h3v3h-6v-6Z"/>
  <path class="cls-3" d="M207.12,88h3v3h4v3h-7v-6Z"/>
  <path class="cls-3" d="M.12,91c.96,1.76,1.29,3.76,1,6h3v3H.12v-9Z"/>
  <path class="cls-3" d="M57.12,91h3v3h4v-3h3v3h6v3h-19v-3h3v-3Z"/>
  <path class="cls-3" d="M92.12,97v3h-16v-3h3v-3h6v-3h4v6h3Z"/>
  <path class="cls-3" d="M145.12,91h3v3h3v-3h3v3h6v3h-18v-3h3v-3Z"/>
  <path class="cls-3" d="M173.12,97v3h-9v-6h3v-3h3v6h3Z"/>
  <path class="cls-3" d="M4.12,97v-3h3v3h-3Z"/>
  <path class="cls-3" d="M92.12,97v-3h3v3h-3Z"/>
  <path class="cls-3" d="M173.12,97v-3h3v3h-3Z"/>
  <path class="cls-3" d="M51.12,100h-3v-3h3v3Z"/>
  <path class="cls-3" d="M139.12,100h-4v-3h4v3Z"/>
  <path class="cls-3" d="M23.12,106v4H7.12v-4h3v-3h7v-3h3v6h3Z"/>
  <path class="cls-3" d="M48.12,100v6h-6v-3h-3v-3h9Z"/>
  <path class="cls-3" d="M51.12,100h6v3h-3v3h-3v-6Z"/>
  <path class="cls-3" d="M110.12,106v4h-15v-4h3v-3h6v-3h3v6h3Z"/>
  <path class="cls-3" d="M135.12,100v6h-6v-3h-3v-3h9Z"/>
  <path class="cls-3" d="M139.12,100h6v3h-3v3h-3v-6Z"/>
  <path class="cls-3" d="M192.12,106v4h-16v-4h3v-3h6v-3h4v6h3Z"/>
  <path class="cls-3" d="M210.12,106v-3h-3v-3h10v6h-7Z"/>
  <path class="cls-3" d="M23.12,106v-3h3v3h-3Z"/>
  <path class="cls-3" d="M39.12,103v3h-4v4h-3v-7h7Z"/>
  <path class="cls-1" d="M39.12,103h3v3h-3v-3Z"/>
  <path class="cls-1" d="M57.12,103v3h-3v-3h3Z"/>
  <path class="cls-3" d="M57.12,103h3v3h4v4h-10v-4h3v-3Z"/>
  <path class="cls-3" d="M110.12,106v-3h4v3h-4Z"/>
  <path class="cls-3" d="M126.12,103v3h-3v4h-3v-7h6Z"/>
  <path class="cls-1" d="M126.12,103h3v3h-3v-3Z"/>
  <path class="cls-1" d="M145.12,103v3h-3v-3h3Z"/>
  <path class="cls-3" d="M145.12,103h3v3h3v4h-9v-4h3v-3Z"/>
  <path class="cls-3" d="M192.12,106v-3h3v3h-3Z"/>
  <path class="cls-3" d="M207.12,103v3h-3v4h-3v-7h6Z"/>
  <path class="cls-1" d="M207.12,103h3v3h-3v-3Z"/>
  <path class="cls-3" d="M39.12,106h3v4h-3v-4Z"/>
  <path class="cls-3" d="M126.12,106h3v4h-3v-4Z"/>
  <path class="cls-3" d="M207.12,106h3v4h-3v-4Z"/>
  <path class="cls-3" d="M.12,110H4.12v3h3v3h3v3h4v3H7.12v-3H.12v-9Z"/>
  <path class="cls-3" d="M76.12,116h3v-6h3v3h3v-3h7v3h3v3h3v3h3v3h-6v-3h-19v-3Z"/>
  <path class="cls-3" d="M167.12,110h6v3h3v3h3v3h3v3h-6v-3h-12v-3h-7v-3h10v-3Z"/>
  <path class="cls-3" d="M76.12,116h-6v-3h6v3Z"/>
  <path class="cls-3" d="M45.12,122v-6h3v6h-3Z"/>
  <path class="cls-3" d="M51.12,116h3v3h6v3h4v3h-7v-3h-6v-6Z"/>
  <path class="cls-3" d="M132.12,122v-6h3v6h-3Z"/>
  <path class="cls-3" d="M139.12,116h3v3h6v3h3v3h-6v-3h-6v-6Z"/>
  <path class="cls-3" d="M214.12,122v-6h3v6h-3Z"/>
  <path class="cls-3" d="M42.12,122h-3v-3h3v3Z"/>
  <path class="cls-3" d="M129.12,122h-3v-3h3v3Z"/>
  <path class="cls-3" d="M210.12,122h-3v-3h3v3Z"/>
  <path class="cls-3" d="M29.12,125h-3v-3h3v3Z"/>
  <path class="cls-3" d="M42.12,122h3v3h-3v-3Z"/>
  <path class="cls-3" d="M70.12,122h6v6h-6v-6Z"/>
  <path class="cls-3" d="M117.12,125h-3v-3h3v3Z"/>
  <path class="cls-3" d="M129.12,122h3v3h-3v-3Z"/>
  <path class="cls-3" d="M157.12,122h7v6h-7v-6Z"/>
  <path class="cls-3" d="M198.12,125h-3v-3h3v3Z"/>
  <path class="cls-3" d="M210.12,122h4v3h-4v-3Z"/>
  <path class="cls-3" d="M26.12,125v3h3v3h-12v4H7.12v-4h3v-3h7v-3h9Z"/>
  <path class="cls-1" d="M26.12,125h3v3h-3v-3Z"/>
  <path class="cls-3" d="M29.12,125h3v3h-3v-3Z"/>
  <path class="cls-3" d="M114.12,125v3h3v3h-13v4h-9v-4h3v-3h6v-3h10Z"/>
  <path class="cls-1" d="M114.12,125h3v3h-3v-3Z"/>
  <path class="cls-3" d="M117.12,125h3v3h-3v-3Z"/>
  <path class="cls-3" d="M195.12,125v3h3v3h-13v4h-9v-4h3v-3h6v-3h10Z"/>
  <path class="cls-1" d="M195.12,125h3v3h-3v-3Z"/>
  <path class="cls-3" d="M198.12,125h3v3h-3v-3Z"/>
  <path class="cls-3" d="M32.12,128h3v3h4v4h-7v-7Z"/>
  <path class="cls-3" d="M120.12,128h3v3h3v4h-6v-7Z"/>
  <path class="cls-3" d="M201.12,128h3v3h3v4h-6v-7Z"/>
  <path class="cls-3" d="M76.12,131h3v4h-3v-4Z"/>
  <path class="cls-3" d="M7.12,141v3H.12v-6c.9-.71,1.24-1.71,1-3h3v6h3Z"/>
  <path class="cls-3" d="M54.12,138h-3v-3h3v3Z"/>
  <path class="cls-3" d="M67.12,141h-13v-3h3v-3h3v3h7v3Z"/>
  <path class="cls-3" d="M95.12,141v3h-16v-3h3v-3h7v-3h3v6h3Z"/>
  <path class="cls-3" d="M142.12,138h-3v-3h3v3Z"/>
  <path class="cls-3" d="M154.12,141h-12v-3h3v-3h3v3h6v3Z"/>
  <path class="cls-3" d="M176.12,141v3h-12v-6h6v-3h3v6h3Z"/>
  <path class="cls-3" d="M7.12,141v-3h3v3h-3Z"/>
  <path class="cls-3" d="M51.12,138v3h3v3h-6v-6h3Z"/>
  <path class="cls-1" d="M51.12,138h3v3h-3v-3Z"/>
  <path class="cls-3" d="M95.12,141v-3h3v3h-3Z"/>
  <path class="cls-3" d="M139.12,138v3h3v3h-7v-6h4Z"/>
  <path class="cls-1" d="M139.12,138h3v3h-3v-3Z"/>
  <path class="cls-3" d="M176.12,141v-3h3v3h-3Z"/>
  <path class="cls-3" d="M219.12,138v6c-1.19-.47-1.86-1.47-2-3,.14-1.53,.81-2.53,2-3Z"/>
  <path class="cls-3" d="M67.12,141h3v3h-3v-3Z"/>
  <path class="cls-3" d="M154.12,141h3v3h-3v-3Z"/>
  <path class="cls-3" d="M7.12,144h3v3h4v-3h3v3h6v3H4.12v-3h3v-3Z"/>
  <path class="cls-3" d="M95.12,144h3v3h3v-3h3v3h6v3h-18v-3h3v-3Z"/>
  <path class="cls-3" d="M176.12,144h3v3h3v-3h3v3h7v3h-19v-3h3v-3Z"/>
  <path class="cls-3" d="M35.12,150h-3v-3h3v3Z"/>
  <path class="cls-3" d="M48.12,153h-13v-3h4v-3h3v3h6v3Z"/>
  <path class="cls-3" d="M64.12,157v-4h-4v-3h10v-3h3v3h3v7h-12Z"/>
  <path class="cls-3" d="M123.12,150h-3v-3h3v3Z"/>
  <path class="cls-3" d="M135.12,153h-12v-3h3v-3h3v3h6v3Z"/>
  <path class="cls-3" d="M164.12,157h-13v-4h-3v-3h9v-3h3v3h4v7Z"/>
  <path class="cls-3" d="M204.12,150h-3v-3h3v3Z"/>
  <path class="cls-3" d="M217.12,153h-13v-3h3v-3h3v3h7v3Z"/>
  <path class="cls-3" d="M32.12,150v7h-3v-7h3Z"/>
  <path class="cls-3" d="M120.12,150v7h-3v-7h3Z"/>
  <path class="cls-3" d="M201.12,150v7h-3v-7h3Z"/>
  <path class="cls-3" d="M48.12,153h3v4h-3v-4Z"/>
  <path class="cls-3" d="M60.12,153h4v7h-10v-7h6Z"/>
  <path class="cls-1" d="M60.12,153h4v4h-4v-4Z"/>
  <path class="cls-3" d="M135.12,153h4v4h-4v-4Z"/>
  <path class="cls-3" d="M148.12,153v4h3v3h-9v-7h6Z"/>
  <path class="cls-1" d="M148.12,153h3v4h-3v-4Z"/>
  <path class="cls-3" d="M217.12,153h2v4c-1.68-.68-2.34-2.02-2-4Z"/>
  <path class="cls-3" d="M.12,157H7.12v3c2.89-.51,5.22,.16,7,2H.12v-5Z"/>
  <path class="cls-3" d="M101.12,162h-16c-.32-1.55-1.32-2.21-3-2v-3h13v3c2.58-.47,4.58,.19,6,2Z"/>
  <path class="cls-3" d="M164.12,157h12v3c2.58-.47,4.58,.19,6,2h-15c-.32-1.55-1.32-2.21-3-2v-3Z"/>
</svg>