<?xml version="1.0" encoding="UTF-8"?>
<svg id="Layer_1" data-name="Layer 1" xmlns="http://www.w3.org/2000/svg" viewBox="0 0 106.4 105.86">
  <defs>
    <style>
      .cls-1 {
        fill: #080609;
      }

      .cls-1, .cls-2, .cls-3, .cls-4 {
        fill-rule: evenodd;
      }

      .cls-2 {
        fill: #fdfdfc;
      }

      .cls-3 {
        fill: #1f141b;
      }

      .cls-4 {
        fill: #dba65f;
      }
    </style>
  </defs>
  <path class="cls-3" d="M2.63,70.43c-.22-2.57-.89-4.9-2-7C-3,33.88,9,13.38,36.63,1.93c31.54-6.81,54.04,4.36,67.5,33.5,7.17,29.8-2.66,51.97-29.5,66.5-33.38,10.47-57.38-.03-72-31.5Z"/>
  <path class="cls-2" d="M100.63,35.43c.07,2.93,.73,5.59,2,8,3.09,28.54-8.91,48.04-36,58.5-31.66,5.31-52.49-7.19-62.5-37.5C-.28,40.66,7.55,22.16,27.63,8.93,52.57-2.78,74.4,1.39,93.13,21.43c3.29,4.24,5.79,8.91,7.5,14Z"/>
  <path class="cls-4" d="M100.63,35.43c1.54,2.34,2.21,5,2,8-1.27-2.41-1.93-5.07-2-8Z"/>
  <path class="cls-1" d="M48.63,40.43c11.62-.65,17.46,4.68,17.5,16-4.38,9.45-11.21,11.95-20.5,7.5-4.65-4.57-6.15-10.07-4.5-16.5,2.4-2.57,4.9-4.9,7.5-7Z"/>
</svg>