<?xml version="1.0" encoding="UTF-8"?>
<!DOCTYPE svg PUBLIC "-//W3C//DTD SVG 1.1//EN" "http://www.w3.org/Graphics/SVG/1.1/DTD/svg11.dtd">
<svg xmlns="http://www.w3.org/2000/svg" version="1.1" width="330px" height="280px" style="shape-rendering:geometricPrecision; text-rendering:geometricPrecision; image-rendering:optimizeQuality; fill-rule:evenodd; clip-rule:evenodd" xmlns:xlink="http://www.w3.org/1999/xlink">
<g><path style="opacity:0.986" fill="#070205" d="M 245.5,-0.5 C 255.5,-0.5 265.5,-0.5 275.5,-0.5C 275.5,57.8333 275.5,116.167 275.5,174.5C 282.167,174.5 288.833,174.5 295.5,174.5C 295.5,116.167 295.5,57.8333 295.5,-0.5C 306.833,-0.5 318.167,-0.5 329.5,-0.5C 329.5,92.8333 329.5,186.167 329.5,279.5C 219.5,279.5 109.5,279.5 -0.5,279.5C -0.5,252.167 -0.5,224.833 -0.5,197.5C 0.18213,188.302 1.01546,178.968 2,169.5C 25.2207,150.118 47.3874,129.451 68.5,107.5C 69.5814,129.315 71.9147,150.981 75.5,172.5C 100.106,150.229 124.106,127.229 147.5,103.5C 149.275,126.519 151.109,149.519 153,172.5C 176.014,149.319 199.18,126.319 222.5,103.5C 223.96,112.769 224.793,122.103 225,131.5C 225.5,145.829 225.667,160.163 225.5,174.5C 232.167,174.5 238.833,174.5 245.5,174.5C 245.5,116.167 245.5,57.8333 245.5,-0.5 Z"/></g>
</svg>
