<?xml version="1.0" encoding="UTF-8"?>
<svg id="Layer_1" data-name="Layer 1" xmlns="http://www.w3.org/2000/svg" viewBox="0 0 145 146">
  <defs>
    <style>
      .cls-1 {
        fill: #676867;
        fill-rule: evenodd;
      }
    </style>
  </defs>
  <path class="cls-1" d="M59,0h3V3h-3V0Z"/>
  <path class="cls-1" d="M90,0h3V3h-3V0Z"/>
  <path class="cls-1" d="M47,3h3v3h-3V3Z"/>
  <path class="cls-1" d="M81,3h3v3h-3V3Z"/>
  <path class="cls-1" d="M109,3h3v3h-3V3Z"/>
  <path class="cls-1" d="M118,3h4v3h-4V3Z"/>
  <path class="cls-1" d="M134,3h3v3h-3V3Z"/>
  <path class="cls-1" d="M15,6h3v3h-3v-3Z"/>
  <path class="cls-1" d="M25,6h3v3h-3v-3Z"/>
  <path class="cls-1" d="M34,6h3v3h-3v-3Z"/>
  <path class="cls-1" d="M56,6h3v3h-3v-3Z"/>
  <path class="cls-1" d="M68,6h4v3h-4v-3Z"/>
  <path class="cls-1" d="M100,6h3v3h-3v-3Z"/>
  <path class="cls-1" d="M6,9h3v3h-3v-3Z"/>
  <path class="cls-1" d="M43,9h4v3h-4v-3Z"/>
  <path class="cls-1" d="M75,9h3v3h-3v-3Z"/>
  <path class="cls-1" d="M87,9h3v3h-3v-3Z"/>
  <path class="cls-1" d="M125,9h3v3h-3v-3Z"/>
  <path class="cls-1" d="M143,9c1.96,.45,2.3,1.45,1,3-.89-.82-1.22-1.82-1-3Z"/>
  <path class="cls-1" d="M50,12h3v3h-3v-3Z"/>
  <path class="cls-1" d="M62,12h3v3h-3v-3Z"/>
  <path class="cls-1" d="M22,15h3v3h-3v-3Z"/>
  <path class="cls-1" d="M31,15h3v3h-3v-3Z"/>
  <path class="cls-1" d="M56,15h3v3h-3v-3Z"/>
  <path class="cls-1" d="M103,15h3v3h-3v-3Z"/>
  <path class="cls-1" d="M112,15h3v3h-3v-3Z"/>
  <path class="cls-1" d="M134,15h3v3h-3v-3Z"/>
  <path class="cls-1" d="M9,18h3v4h-3v-4Z"/>
  <path class="cls-1" d="M43,18h4v4h-4v-4Z"/>
  <path class="cls-1" d="M68,18h4v4h-4v-4Z"/>
  <path class="cls-1" d="M81,18h3v4h-3v-4Z"/>
  <path class="cls-1" d="M93,18h4v4h-4v-4Z"/>
  <path class="cls-1" d="M122,18h3v4h-3v-4Z"/>
  <path class="cls-1" d="M3,22h3v3H3v-3Z"/>
  <path class="cls-1" d="M18,25h4v3h-4v-3Z"/>
  <path class="cls-1" d="M40,25h3v3h-3v-3Z"/>
  <path class="cls-1" d="M53,25h3v3h-3v-3Z"/>
  <path class="cls-1" d="M84,25h3v3h-3v-3Z"/>
  <path class="cls-1" d="M103,25h3v3h-3v-3Z"/>
  <path class="cls-1" d="M128,25h3v3h-3v-3Z"/>
  <path class="cls-1" d="M137,25h3v3h-3v-3Z"/>
  <path class="cls-1" d="M28,28h3v3h-3v-3Z"/>
  <path class="cls-1" d="M59,28h3v3h-3v-3Z"/>
  <path class="cls-1" d="M72,28h3v3h-3v-3Z"/>
  <path class="cls-1" d="M112,28h3v3h-3v-3Z"/>
  <path class="cls-1" d="M6,31h3v3h-3v-3Z"/>
  <path class="cls-1" d="M18,31h4v3h-4v-3Z"/>
  <path class="cls-1" d="M40,31h3v3h-3v-3Z"/>
  <path class="cls-1" d="M90,31h3v3h-3v-3Z"/>
  <path class="cls-1" d="M56,34h3v3h-3v-3Z"/>
  <path class="cls-1" d="M78,34h3v3h-3v-3Z"/>
  <path class="cls-1" d="M125,34h3v3h-3v-3Z"/>
  <path class="cls-1" d="M134,34h3v3h-3v-3Z"/>
  <path class="cls-1" d="M143,34c1.96,.45,2.3,1.45,1,3-.89-.82-1.22-1.82-1-3Z"/>
  <path class="cls-1" d="M28,37h3v3h-3v-3Z"/>
  <path class="cls-1" d="M40,37h3v3h-3v-3Z"/>
  <path class="cls-1" d="M50,37h3v3h-3v-3Z"/>
  <path class="cls-1" d="M65,37h3v3h-3v-3Z"/>
  <path class="cls-1" d="M100,37h3v3h-3v-3Z"/>
  <path class="cls-1" d="M6,40h3v3h-3v-3Z"/>
  <path class="cls-1" d="M18,40h4v3h-4v-3Z"/>
  <path class="cls-1" d="M84,40h3v3h-3v-3Z"/>
  <path class="cls-1" d="M109,40h3v3h-3v-3Z"/>
  <path class="cls-1" d="M75,43h3v4h-3v-4Z"/>
  <path class="cls-1" d="M115,43h3v4h-3v-4Z"/>
  <path class="cls-1" d="M28,47h3v3h-3v-3Z"/>
  <path class="cls-1" d="M40,47h3v3h-3v-3Z"/>
  <path class="cls-1" d="M59,47h3v3h-3v-3Z"/>
  <path class="cls-1" d="M90,47h3v3h-3v-3Z"/>
  <path class="cls-1" d="M125,47h3v3h-3v-3Z"/>
  <path class="cls-1" d="M134,47h3v3h-3v-3Z"/>
  <path class="cls-1" d="M143,47c1.96,.45,2.3,1.45,1,3-.89-.82-1.22-1.82-1-3Z"/>
  <path class="cls-1" d="M3,50h3v3H3v-3Z"/>
  <path class="cls-1" d="M68,50h4v3h-4v-3Z"/>
  <path class="cls-1" d="M100,50h3v3h-3v-3Z"/>
  <path class="cls-1" d="M12,53h3v3h-3v-3Z"/>
  <path class="cls-1" d="M22,53h3v3h-3v-3Z"/>
  <path class="cls-1" d="M31,53h3v3h-3v-3Z"/>
  <path class="cls-1" d="M50,53h3v3h-3v-3Z"/>
  <path class="cls-1" d="M75,53h3v3h-3v-3Z"/>
  <path class="cls-1" d="M109,53h3v3h-3v-3Z"/>
  <path class="cls-1" d="M84,56h3v3h-3v-3Z"/>
  <path class="cls-1" d="M43,59h4v3h-4v-3Z"/>
  <path class="cls-1" d="M62,59h3v3h-3v-3Z"/>
  <path class="cls-1" d="M103,59h3v3h-3v-3Z"/>
  <path class="cls-1" d="M115,59h3v3h-3v-3Z"/>
  <path class="cls-1" d="M125,59h3v3h-3v-3Z"/>
  <path class="cls-1" d="M134,59h3v3h-3v-3Z"/>
  <path class="cls-1" d="M143,59c1.96,.45,2.3,1.45,1,3-.89-.82-1.22-1.82-1-3Z"/>
  <path class="cls-1" d="M3,62h3v3H3v-3Z"/>
  <path class="cls-1" d="M34,62h3v3h-3v-3Z"/>
  <path class="cls-1" d="M53,62h3v3h-3v-3Z"/>
  <path class="cls-1" d="M12,65h3v3h-3v-3Z"/>
  <path class="cls-1" d="M22,65h3v3h-3v-3Z"/>
  <path class="cls-1" d="M75,65h3v3h-3v-3Z"/>
  <path class="cls-1" d="M87,65h3v3h-3v-3Z"/>
  <path class="cls-1" d="M97,65h3v3h-3v-3Z"/>
  <path class="cls-1" d="M109,65h3v3h-3v-3Z"/>
  <path class="cls-1" d="M47,68h3v4h-3v-4Z"/>
  <path class="cls-1" d="M65,68h3v4h-3v-4Z"/>
  <path class="cls-1" d="M118,68h4v4h-4v-4Z"/>
  <path class="cls-1" d="M128,68h3v4h-3v-4Z"/>
  <path class="cls-1" d="M137,68h3v4h-3v-4Z"/>
  <path class="cls-1" d="M37,72h3v3h-3v-3Z"/>
  <path class="cls-1" d="M59,72h3v3h-3v-3Z"/>
  <path class="cls-1" d="M0,75H3v3H0v-3Z"/>
  <path class="cls-1" d="M6,75h3v3h-3v-3Z"/>
  <path class="cls-1" d="M15,75h3v3h-3v-3Z"/>
  <path class="cls-1" d="M28,75h3v3h-3v-3Z"/>
  <path class="cls-1" d="M53,75h3v3h-3v-3Z"/>
  <path class="cls-1" d="M103,75h3v3h-3v-3Z"/>
  <path class="cls-1" d="M47,78h3v3h-3v-3Z"/>
  <path class="cls-1" d="M65,78h3v3h-3v-3Z"/>
  <path class="cls-1" d="M84,78h3v3h-3v-3Z"/>
  <path class="cls-1" d="M112,78h3v3h-3v-3Z"/>
  <path class="cls-1" d="M122,78h3v3h-3v-3Z"/>
  <path class="cls-1" d="M131,78h3v3h-3v-3Z"/>
  <path class="cls-1" d="M140,78h3v3h-3v-3Z"/>
  <path class="cls-1" d="M37,81h3v3h-3v-3Z"/>
  <path class="cls-1" d="M93,81h4v3h-4v-3Z"/>
  <path class="cls-1" d="M0,84H3v3H0v-3Z"/>
  <path class="cls-1" d="M53,84h3v3h-3v-3Z"/>
  <path class="cls-1" d="M100,84h3v3h-3v-3Z"/>
  <path class="cls-1" d="M12,87h3v3h-3v-3Z"/>
  <path class="cls-1" d="M18,87h4v3h-4v-3Z"/>
  <path class="cls-1" d="M28,87h3v3h-3v-3Z"/>
  <path class="cls-1" d="M40,87h3v3h-3v-3Z"/>
  <path class="cls-1" d="M75,87h3v3h-3v-3Z"/>
  <path class="cls-1" d="M90,87h3v3h-3v-3Z"/>
  <path class="cls-1" d="M109,87h3v3h-3v-3Z"/>
  <path class="cls-1" d="M128,87h3v3h-3v-3Z"/>
  <path class="cls-1" d="M137,87h3v3h-3v-3Z"/>
  <path class="cls-1" d="M65,90h3v3h-3v-3Z"/>
  <path class="cls-1" d="M115,90h3v3h-3v-3Z"/>
  <path class="cls-1" d="M6,93h3v4h-3v-4Z"/>
  <path class="cls-1" d="M53,93h3v4h-3v-4Z"/>
  <path class="cls-1" d="M84,93h3v4h-3v-4Z"/>
  <path class="cls-1" d="M97,93h3v4h-3v-4Z"/>
  <path class="cls-1" d="M131,93h3v4h-3v-4Z"/>
  <path class="cls-1" d="M140,93h3v4h-3v-4Z"/>
  <path class="cls-1" d="M15,97h3v3h-3v-3Z"/>
  <path class="cls-1" d="M25,97h3v3h-3v-3Z"/>
  <path class="cls-1" d="M34,97h3v3h-3v-3Z"/>
  <path class="cls-1" d="M43,97h4v3h-4v-3Z"/>
  <path class="cls-1" d="M72,97h3v3h-3v-3Z"/>
  <path class="cls-1" d="M106,97h3v3h-3v-3Z"/>
  <path class="cls-1" d="M122,97h3v3h-3v-3Z"/>
  <path class="cls-1" d="M3,103h3v3H3v-3Z"/>
  <path class="cls-1" d="M12,103h3v3h-3v-3Z"/>
  <path class="cls-1" d="M53,103h3v3h-3v-3Z"/>
  <path class="cls-1" d="M62,103h3v3h-3v-3Z"/>
  <path class="cls-1" d="M87,103h3v3h-3v-3Z"/>
  <path class="cls-1" d="M100,103h3v3h-3v-3Z"/>
  <path class="cls-1" d="M112,103h3v3h-3v-3Z"/>
  <path class="cls-1" d="M134,103h3v3h-3v-3Z"/>
  <path class="cls-1" d="M25,106h3v3h-3v-3Z"/>
  <path class="cls-1" d="M34,106h3v3h-3v-3Z"/>
  <path class="cls-1" d="M43,106h4v3h-4v-3Z"/>
  <path class="cls-1" d="M75,106h3v3h-3v-3Z"/>
  <path class="cls-1" d="M125,106h3v3h-3v-3Z"/>
  <path class="cls-1" d="M143,106c1.96,.45,2.3,1.45,1,3-.89-.82-1.22-1.82-1-3Z"/>
  <path class="cls-1" d="M0,112H3v3H0v-3Z"/>
  <path class="cls-1" d="M9,112h3v3h-3v-3Z"/>
  <path class="cls-1" d="M18,112h4v3h-4v-3Z"/>
  <path class="cls-1" d="M28,112h3v3h-3v-3Z"/>
  <path class="cls-1" d="M37,112h3v3h-3v-3Z"/>
  <path class="cls-1" d="M50,112h3v3h-3v-3Z"/>
  <path class="cls-1" d="M65,112h3v3h-3v-3Z"/>
  <path class="cls-1" d="M81,112h3v3h-3v-3Z"/>
  <path class="cls-1" d="M90,112h3v3h-3v-3Z"/>
  <path class="cls-1" d="M103,112h3v3h-3v-3Z"/>
  <path class="cls-1" d="M115,112h3v3h-3v-3Z"/>
  <path class="cls-1" d="M134,112h3v3h-3v-3Z"/>
  <path class="cls-1" d="M97,115h3v3h-3v-3Z"/>
  <path class="cls-1" d="M125,115h3v3h-3v-3Z"/>
  <path class="cls-1" d="M9,118h3v4h-3v-4Z"/>
  <path class="cls-1" d="M25,118h3v4h-3v-4Z"/>
  <path class="cls-1" d="M47,118h3v4h-3v-4Z"/>
  <path class="cls-1" d="M59,118h3v4h-3v-4Z"/>
  <path class="cls-1" d="M72,118h3v4h-3v-4Z"/>
  <path class="cls-1" d="M143,118c1.09,.12,1.75,.79,2,2-.33,.67-.67,1.33-1,2-.93-1.19-1.26-2.52-1-4Z"/>
  <path class="cls-1" d="M18,122h4v3h-4v-3Z"/>
  <path class="cls-1" d="M31,122h3v3h-3v-3Z"/>
  <path class="cls-1" d="M81,122h3v3h-3v-3Z"/>
  <path class="cls-1" d="M90,122h3v3h-3v-3Z"/>
  <path class="cls-1" d="M106,122h3v3h-3v-3Z"/>
  <path class="cls-1" d="M115,122h3v3h-3v-3Z"/>
  <path class="cls-1" d="M134,122h3v3h-3v-3Z"/>
  <path class="cls-1" d="M40,125h3v3h-3v-3Z"/>
  <path class="cls-1" d="M53,125h3v3h-3v-3Z"/>
  <path class="cls-1" d="M65,125h3v3h-3v-3Z"/>
  <path class="cls-1" d="M122,125h3v3h-3v-3Z"/>
  <path class="cls-1" d="M0,128H3v3H0v-3Z"/>
  <path class="cls-1" d="M9,128h3v3h-3v-3Z"/>
  <path class="cls-1" d="M18,128h4v3h-4v-3Z"/>
  <path class="cls-1" d="M75,128h3v3h-3v-3Z"/>
  <path class="cls-1" d="M84,128h3v3h-3v-3Z"/>
  <path class="cls-1" d="M97,128h3v3h-3v-3Z"/>
  <path class="cls-1" d="M128,128h3v3h-3v-3Z"/>
  <path class="cls-1" d="M140,128h3v3h-3v-3Z"/>
  <path class="cls-1" d="M28,131h3v3h-3v-3Z"/>
  <path class="cls-1" d="M112,131h3v3h-3v-3Z"/>
  <path class="cls-1" d="M37,134h3v3h-3v-3Z"/>
  <path class="cls-1" d="M50,134h3v3h-3v-3Z"/>
  <path class="cls-1" d="M59,134h3v3h-3v-3Z"/>
  <path class="cls-1" d="M68,134h4v3h-4v-3Z"/>
  <path class="cls-1" d="M93,134h4v3h-4v-3Z"/>
  <path class="cls-1" d="M125,134h3v3h-3v-3Z"/>
  <path class="cls-1" d="M134,134h3v3h-3v-3Z"/>
  <path class="cls-1" d="M0,137H3v3H0v-3Z"/>
  <path class="cls-1" d="M18,137h4v3h-4v-3Z"/>
  <path class="cls-1" d="M109,137h3v3h-3v-3Z"/>
  <path class="cls-1" d="M9,140h3v3h-3v-3Z"/>
  <path class="cls-1" d="M28,140h3v3h-3v-3Z"/>
  <path class="cls-1" d="M56,140h3v3h-3v-3Z"/>
  <path class="cls-1" d="M65,140h3v3h-3v-3Z"/>
  <path class="cls-1" d="M75,140h3v3h-3v-3Z"/>
  <path class="cls-1" d="M84,140h3v3h-3v-3Z"/>
  <path class="cls-1" d="M103,140h3v3h-3v-3Z"/>
  <path class="cls-1" d="M118,140h4v3h-4v-3Z"/>
  <path class="cls-1" d="M131,140h3v3h-3v-3Z"/>
  <path class="cls-1" d="M18,143h4v3h-4v-3Z"/>
  <path class="cls-1" d="M47,143h3v3h-3v-3Z"/>
  <path class="cls-1" d="M97,143h3v3h-3v-3Z"/>
</svg>