<?xml version="1.0" encoding="UTF-8"?>
<!DOCTYPE svg PUBLIC "-//W3C//DTD SVG 1.1//EN" "http://www.w3.org/Graphics/SVG/1.1/DTD/svg11.dtd">
<svg xmlns="http://www.w3.org/2000/svg" version="1.1" width="371px" height="373px" style="shape-rendering:geometricPrecision; text-rendering:geometricPrecision; image-rendering:optimizeQuality; fill-rule:evenodd; clip-rule:evenodd" xmlns:xlink="http://www.w3.org/1999/xlink">
<g><path style="opacity:0.986" fill="#cf3536" d="M 150.5,-0.5 C 167.167,-0.5 183.833,-0.5 200.5,-0.5C 232.385,2.63979 263.052,10.8065 292.5,24C 301.068,27.8655 309.235,32.3655 317,37.5C 323.667,66.8333 330.333,96.1667 337,125.5C 340.432,145.019 341.932,164.685 341.5,184.5C 348.5,184.5 355.5,184.5 362.5,184.5C 366.112,226.257 368.779,267.923 370.5,309.5C 370.5,330.5 370.5,351.5 370.5,372.5C 246.833,372.5 123.167,372.5 -0.5,372.5C -0.5,367.833 -0.5,363.167 -0.5,358.5C 4.40435,300.712 8.40435,242.712 11.5,184.5C 17.1667,184.5 22.8333,184.5 28.5,184.5C 36.0166,136.067 44.1832,87.7341 53,39.5C 83.0534,19.9879 115.553,6.65456 150.5,-0.5 Z"/></g>
<g><path style="opacity:1" fill="#ebd08b" d="M 163.5,20.5 C 203.024,18.0379 240.357,25.8712 275.5,44C 284.098,48.8807 292.265,54.3807 300,60.5C 312.273,108.136 320.439,156.47 324.5,205.5C 330.167,205.5 335.833,205.5 341.5,205.5C 345.925,254.065 348.592,302.732 349.5,351.5C 241.167,351.5 132.833,351.5 24.5,351.5C 25.34,302.728 28.0066,254.061 32.5,205.5C 38.1667,205.5 43.8333,205.5 49.5,205.5C 54.253,156.728 61.753,108.395 72,60.5C 99.4093,39.8737 129.909,26.5403 163.5,20.5 Z"/></g>
<g><path style="opacity:1" fill="#e16e37" d="M 122.5,88.5 C 113.167,88.5 103.833,88.5 94.5,88.5C 94.5,156.167 94.5,223.833 94.5,291.5C 91.1233,222.702 89.79,153.702 90.5,84.5C 101.586,83.6347 112.253,84.968 122.5,88.5 Z"/></g>
<g><path style="opacity:1" fill="#ce6e6e" d="M 278.5,318.5 C 278.5,242.167 278.5,165.833 278.5,89.5C 270.167,89.5 261.833,89.5 253.5,89.5C 256.715,87.1441 260.381,85.6441 264.5,85C 270.825,84.5005 277.158,84.3338 283.5,84.5C 284.205,162.712 282.539,240.712 278.5,318.5 Z"/></g>
<g><path style="opacity:1" fill="#dc6a43" d="M 122.5,88.5 C 123.492,88.3284 124.158,88.6618 124.5,89.5C 114.833,89.5 105.167,89.5 95.5,89.5C 95.5,165.5 95.5,241.5 95.5,317.5C 100.833,317.5 106.167,317.5 111.5,317.5C 111.168,282.329 111.502,247.329 112.5,212.5C 112.5,247.833 112.5,283.167 112.5,318.5C 106.5,318.5 100.5,318.5 94.5,318.5C 94.5,309.5 94.5,300.5 94.5,291.5C 94.5,223.833 94.5,156.167 94.5,88.5C 103.833,88.5 113.167,88.5 122.5,88.5 Z"/></g>
<g><path style="opacity:1" fill="#cf3b39" d="M 124.5,89.5 C 148.15,158.749 169.65,228.749 189,299.5C 208.216,228.692 229.716,158.692 253.5,89.5C 261.833,89.5 270.167,89.5 278.5,89.5C 278.5,165.833 278.5,242.167 278.5,318.5C 273.167,318.5 267.833,318.5 262.5,318.5C 262.628,255.823 261.961,193.156 260.5,130.5C 260.666,124.158 260.5,117.825 260,111.5C 258.961,112.244 258.461,113.244 258.5,114.5C 237.908,180.88 218.574,247.547 200.5,314.5C 191.751,318.693 182.918,319.36 174,316.5C 155.606,247.489 136.106,178.822 115.5,110.5C 115.631,109.624 115.298,108.957 114.5,108.5C 113.504,114.463 113.171,120.463 113.5,126.5C 112.729,155.16 112.396,183.827 112.5,212.5C 111.502,247.329 111.168,282.329 111.5,317.5C 106.167,317.5 100.833,317.5 95.5,317.5C 95.5,241.5 95.5,165.5 95.5,89.5C 105.167,89.5 114.833,89.5 124.5,89.5 Z"/></g>
<g><path style="opacity:1" fill="#e29e6f" d="M 115.5,110.5 C 114.833,115.833 114.167,121.167 113.5,126.5C 113.171,120.463 113.504,114.463 114.5,108.5C 115.298,108.957 115.631,109.624 115.5,110.5 Z"/></g>
<g><path style="opacity:1" fill="#e29d6f" d="M 260.5,130.5 C 259.833,125.167 259.167,119.833 258.5,114.5C 258.461,113.244 258.961,112.244 260,111.5C 260.5,117.825 260.666,124.158 260.5,130.5 Z"/></g>
</svg>
