<?xml version="1.0" encoding="UTF-8"?>
<svg id="Layer_1" data-name="Layer 1" xmlns="http://www.w3.org/2000/svg" viewBox="0 0 84.35 84.35">
  <defs>
    <style>
      .cls-1 {
        fill: #003893;
      }

      .cls-2 {
        fill: none;
        stroke: #003893;
        stroke-miterlimit: 10;
      }
    </style>
  </defs>
  <path class="cls-1" d="M1.84,2.56c-.3,.7-.4,19.1-.3,40.8l.3,39.5H82.84V1.86l-40.3-.3C10.84,1.36,2.14,1.56,1.84,2.56ZM37.94,11.76c2.5,2.5,3.4,4.3,3.4,6.7,0,4.8-3.3,9.8-7,10.6l-3,.5V63.36h8.8l8.7-.1-2.6-2.2c-1.4-1.2-3.9-3.1-5.5-4.3l-2.9-2.1,7.4-8.9c4.1-4.9,7.8-9.3,8.2-9.8,.5-.5,1.5-.4,2.5,.4,1.4,1.2,1.8,1.1,3.4-1,2.2-2.9,2-3,5.3,3.5,1.5,2.7,3.5,6.1,4.6,7.4l1.9,2.5-6.4,7.5c-4.4,5.3-6.2,8.2-5.8,9.4,.9,2.8-2.2,6.5-6,7.3-1.9,.3-3.7,1.2-4,2-.4,1.1-3.9,1.4-17.6,1.4H14.24l.3-18.9c.3-21.2,.7-22.4,8-26.6l3.5-2-2.7-2.2c-7.5-6.1-2.2-18.3,7.9-18.3,2.4,0,4.2,.9,6.7,3.4Z"/>
  <rect class="cls-2" x=".5" y=".5" width="83.35" height="83.35" rx="2.87" ry="2.87"/>
</svg>