<?xml version="1.0" encoding="UTF-8"?>
<svg id="Layer_1" data-name="Layer 1" xmlns="http://www.w3.org/2000/svg" viewBox="0 0 40 72.06">
  <defs>
    <style>
      .cls-1 {
        fill: #155ee6;
        fill-rule: evenodd;
      }
    </style>
  </defs>
  <path class="cls-1" d="M20,.06c6.34-.17,12.68,0,19,.5-5.71,6.04-11.04,12.37-16,19,5.7,.17,11.36,.67,17,1.5-5.85,6.02-11.52,12.18-17,18.5,5,.33,10,.67,15,1-11.83,10.5-23.67,21-35.5,31.5,4.13-8.4,8.96-16.56,14.5-24.5-5.67-.33-11.33-.67-17-1,5.67-7,11.33-14,17-21-5.67-.33-11.33-.67-17-1C6.88,16.52,13.55,8.35,20,.06Z"/>
</svg>