<?xml version="1.0" encoding="UTF-8"?>
<svg id="Layer_1" data-name="Layer 1" xmlns="http://www.w3.org/2000/svg" viewBox="0 0 51 81.03">
  <defs>
    <style>
      .cls-1 {
        fill: #e64e04;
        fill-rule: evenodd;
      }
    </style>
  </defs>
  <path class="cls-1" d="M19,.03c10.26-.25,20.26,1.25,30,4.5,.67,.67,1.33,1.33,2,2-5.64,4.29-7.98,9.96-7,17,.05,6.27,.89,12.44,2.5,18.5,1.07,2.74,2.57,5.24,4.5,7.5-7.52,1.64-15.02,3.48-22.5,5.5-1.84,8.53-2.84,17.2-3,26-.62-8.76-1.62-17.42-3-26-.75-.63-1.58-1.13-2.5-1.5-5.99-.8-11.99-1.47-18-2-.67-.67-1.33-1.33-2-2C7,38.22,8.83,26.05,5.5,13.03c-1.48-2.48-3.32-4.65-5.5-6.5,.94-1.48,2.28-2.48,4-3C9.15,2.41,14.15,1.24,19,.03Z"/>
</svg>