<?xml version="1.0" encoding="UTF-8"?>
<svg id="Layer_1" data-name="Layer 1" xmlns="http://www.w3.org/2000/svg" viewBox="0 0 92.5 80.74">
  <defs>
    <style>
      .cls-1 {
        fill: #0e0b13;
        fill-rule: evenodd;
      }
    </style>
  </defs>
  <path class="cls-1" d="M0,40.72c.33-2.67,.67-5.33,1-8C5.02,18.2,14.02,8.03,28,2.22,32.51,.27,37.17-.4,42,.22c-7.58,4.91-14.58,10.58-21,17l24,24c1,.67,2,.67,3,0l24-24C65.58,10.8,58.58,5.13,51,.22c25.24,2.58,39.08,16.41,41.5,41.5-4.57-7.24-9.91-13.91-16-20l-25.5,25.5,28.5,28.5c1.17,4.17-.33,5.67-4.5,4.5l-28.5-28.5c-8.83,8.83-17.67,17.67-26.5,26.5-3.3,3.66-5.97,3.33-8-1,9.98-9.98,19.98-19.98,30-30L16.5,21.72C10.76,27.95,5.26,34.28,0,40.72Z"/>
</svg>