<?xml version="1.0" encoding="UTF-8"?>
<svg id="Layer_1" data-name="Layer 1" xmlns="http://www.w3.org/2000/svg" viewBox="0 0 91 90">
  <defs>
    <style>
      .cls-1 {
        fill: #fff8fc;
      }

      .cls-1, .cls-2 {
        fill-rule: evenodd;
      }

      .cls-2 {
        fill: #ff05c5;
      }
    </style>
  </defs>
  <path class="cls-2" d="M0,0H91V90H0V0Z"/>
  <path class="cls-1" d="M63,68.05c.17-13,0-26-.5-39-.72,.54-1.22,1.21-1.5,2-4,12.33-8,24.67-12,37h-7c-3.85-13.06-8.02-26.06-12.5-39-.5,13-.67,26-.5,39h-6V22.05c3.28-.28,6.44,.05,9.5,1,4.6,12.3,9.1,24.64,13.5,37,4.79-12.21,9.29-24.54,13.5-37,2.72-.94,5.55-1.28,8.5-1v46h-5Z"/>
</svg>