<?xml version="1.0" encoding="UTF-8"?>
<svg id="Layer_1" data-name="Layer 1" xmlns="http://www.w3.org/2000/svg" viewBox="0 0 87.25 87">
  <defs>
    <style>
      .cls-1 {
        fill: #130c13;
      }

      .cls-1, .cls-2 {
        fill-rule: evenodd;
      }

      .cls-2 {
        fill: #fc8c00;
      }
    </style>
  </defs>
  <path class="cls-1" d="M43.12,0c14.48,10.41,28.82,21.08,43,32,1,18.32,1.33,36.65,1,55H.12C-.21,68.65,.12,50.32,1.12,32,15.45,21.66,29.45,10.99,43.12,0Z"/>
  <path class="cls-2" d="M33.12,50c1.43,.08,2.76-.25,4-1,.98,2.93,1.32,5.93,1,9h3c-.4,3.51-1.07,6.84-2,10-1.59,2.03-2.09,4.36-1.5,7,.41-1.4,.91-2.73,1.5-4,2.42-4.02,4.09-8.35,5-13,2.95-.28,5.78,.06,8.5,1,2.35,5.08,4.68,10.08,7,15-1.41-5.19-2.57-10.53-3.5-16h5v-15c-1.05,.15-2.05-.02-3-.5,.84-1.01,1.17-2.18,1-3.5,6.03,.32,8.36-2.35,7-8-3.46-3.93-6.96-3.93-10.5,0-.84,3.11-.34,5.94,1.5,8.5-.24,.87-.57,1.71-1,2.5-3,1.33-6,1.33-9,0-1.45-1.35-2.12-3.02-2-5,3.21-.21,5.21-1.88,6-5,1.37-2.51,1.03-4.85-1-7-4.71-5.31-9.55-5.31-14.5,0-2.53,7.38-.03,11.88,7.5,13.5,.79,1.09,1.46,2.25,2,3.5-2.97,.66-5.81,1.66-8.5,3-10.49-2.42-20.99-4.75-31.5-7-.17-1.32,.16-2.49,1-3.5,11.33-8.67,22.67-17.33,34-26,1.55-1.29,3.22-1.96,5-2,12.14,9.31,24.14,18.81,36,28.5,1,15.99,1.33,31.99,1,48H5.12c-.17-7.34,0-14.67,.5-22,9.41-3.41,18.58-7.07,27.5-11Z"/>
  <path class="cls-1" d="M50.12,25c2.03,2.15,2.37,4.49,1,7-.17-2.36-.51-4.69-1-7Z"/>
  <path class="cls-2" d="M33.12,50c-9.33,3-18.67,6-28,9v-19c9.69,1.84,19.35,3.84,29,6,.07,1.46-.27,2.79-1,4Z"/>
  <path class="cls-1" d="M39.12,68v3c-.59,1.27-1.09,2.6-1.5,4-.59-2.64-.09-4.97,1.5-7Z"/>
</svg>