<?xml version="1.0" encoding="UTF-8"?>
<svg id="Layer_1" data-name="Layer 1" xmlns="http://www.w3.org/2000/svg" viewBox="0 0 135.24 110">
  <defs>
    <style>
      .cls-1, .cls-2 {
        fill: #6dba42;
      }

      .cls-3 {
        fill: #7f4000;
      }

      .cls-3, .cls-4, .cls-5, .cls-2 {
        fill-rule: evenodd;
      }

      .cls-4 {
        fill: #e8ffbd;
      }

      .cls-5 {
        fill: #6cbb42;
      }
    </style>
  </defs>
  <rect class="cls-1" width="135.24" height="110"/>
  <path class="cls-2" d="M2.24,0H135.24V110H.24C-.41,73.11,.26,36.45,2.24,0Z"/>
  <path class="cls-4" d="M34.24,17v6h6v-6h-3v-3h-6V4c3.12-.04,6.12-.7,9-2,1.63,.38,3.13,1.04,4.5,2,18.04-1.96,36.2-2.62,54.5-2V7h3v4h-3v3h3v3h7v6h6v-6h-3v-3h-6V4c3.12-.04,6.12-.7,9-2,1.63,.38,3.13,1.04,4.5,2,4.3-1.8,8.8-2.47,13.5-2V108H2.24V2H24.24V7h3v4h-3v3h3v3h7Z"/>
  <path class="cls-4" d="M31.24,4c-1.48,.26-2.81-.07-4-1,.67-.33,1.33-.67,2-1,1.21,.25,1.88,.91,2,2Z"/>
  <path class="cls-4" d="M106.24,4c-1.48,.26-2.81-.07-4-1,.67-.33,1.33-.67,2-1,1.21,.25,1.88,.91,2,2Z"/>
  <path class="cls-5" d="M46.24,7h3v4h-3V7Z"/>
  <path class="cls-5" d="M121.24,7h3v4h-3V7Z"/>
  <path class="cls-5" d="M43.24,14h3v3h-3v-3Z"/>
  <path class="cls-5" d="M118.24,14h3v3h-3v-3Z"/>
  <path class="cls-3" d="M34.24,17h6v6h-6v-6Z"/>
  <path class="cls-3" d="M109.24,17h6v6h-6v-6Z"/>
  <path class="cls-5" d="M74.24,39v3h-6v-6h3v3h3Z"/>
  <path class="cls-5" d="M74.24,39v-3h3v3h-3Z"/>
  <path class="cls-5" d="M6.24,39h3v3h-3v-3Z"/>
  <path class="cls-5" d="M68.24,42v9h6v3h-9v-3h-3v-3h3v-3h-3v-6h3v3h3Z"/>
  <path class="cls-5" d="M81.24,39h3v3h-3v-3Z"/>
  <path class="cls-5" d="M9.24,45h3v3h-3v-3Z"/>
  <path class="cls-5" d="M84.24,45h3v3h-3v-3Z"/>
  <path class="cls-5" d="M6.24,51h3v3h-3v-3Z"/>
  <path class="cls-5" d="M81.24,51h3v3h-3v-3Z"/>
  <path class="cls-3" d="M71.24,54h6v7h-6v-7Z"/>
  <path class="cls-5" d="M37.24,76v3h-6v-6h3v3h3Z"/>
  <path class="cls-5" d="M37.24,76v-3h3v3h-3Z"/>
  <path class="cls-5" d="M112.24,76v3h-6v-6h3v3h3Z"/>
  <path class="cls-5" d="M112.24,76v-3h3v3h-3Z"/>
  <path class="cls-5" d="M31.24,79v10h6v3h-10v-3h-3v-3h3v-4h-3v-6h3v3h4Z"/>
  <path class="cls-5" d="M43.24,76h3v3h-3v-3Z"/>
  <path class="cls-5" d="M106.24,79v10h6v3h-10v-3h-3v-3h3v-4h-3v-6h3v3h4Z"/>
  <path class="cls-5" d="M118.24,76h3v3h-3v-3Z"/>
  <path class="cls-5" d="M46.24,82h3v4h-3v-4Z"/>
  <path class="cls-5" d="M121.24,82h3v4h-3v-4Z"/>
  <path class="cls-5" d="M43.24,89h3v3h-3v-3Z"/>
  <path class="cls-5" d="M118.24,89h3v3h-3v-3Z"/>
  <path class="cls-3" d="M34.24,92h6v6h-6v-6Z"/>
  <path class="cls-3" d="M109.24,92h6v6h-6v-6Z"/>
</svg>