<?xml version="1.0" encoding="UTF-8"?>
<!DOCTYPE svg PUBLIC "-//W3C//DTD SVG 1.1//EN" "http://www.w3.org/Graphics/SVG/1.1/DTD/svg11.dtd">
<svg xmlns="http://www.w3.org/2000/svg" version="1.1" width="200px" height="200px" style="shape-rendering:geometricPrecision; text-rendering:geometricPrecision; image-rendering:optimizeQuality; fill-rule:evenodd; clip-rule:evenodd" xmlns:xlink="http://www.w3.org/1999/xlink">
<g><path style="opacity:0.903" fill="#000000" d="M 97.5,32.5 C 98.8734,32.3433 100.207,32.51 101.5,33C 132.333,52.5 163.167,72 194,91.5C 194.701,97.101 192.534,101.101 187.5,103.5C 179.786,99.224 172.286,94.5573 165,89.5C 164.667,114.5 164.333,139.5 164,164.5C 163.5,165 163,165.5 162.5,166C 159.167,166.667 155.833,166.667 152.5,166C 152,165.5 151.5,165 151,164.5C 150.667,136.5 150.333,108.5 150,80.5C 133.3,69.6358 116.467,58.9691 99.5,48.5C 82.5331,58.9691 65.6997,69.6358 49,80.5C 48.6667,108.5 48.3333,136.5 48,164.5C 46.1781,166.045 44.0114,166.712 41.5,166.5C 38.9886,166.712 36.8219,166.045 35,164.5C 34.6667,139.5 34.3333,114.5 34,89.5C 26.7136,94.5573 19.2136,99.224 11.5,103.5C 7.55967,101.48 4.893,98.3136 3.5,94C 4.5,91.6667 6.16667,90 8.5,89C 38.5694,70.6417 68.236,51.8084 97.5,32.5 Z"/></g>
<g><path style="opacity:0.872" fill="#000000" d="M 117.5,79.5 C 127.025,79.5227 130.858,84.1894 129,93.5C 125.144,98.5303 120.311,99.6969 114.5,97C 108.623,89.8942 109.623,84.0609 117.5,79.5 Z"/></g>
<g><path style="opacity:0.864" fill="#000000" d="M 60.5,86.5 C 65.772,85.5491 69.272,87.5491 71,92.5C 71.6667,95.1667 71.6667,97.8333 71,100.5C 63.9147,108.894 62.5814,118.227 67,128.5C 68.8333,125.5 70.6667,122.5 72.5,119.5C 78.5,118.167 84.5,118.167 90.5,119.5C 93,123.833 95.5,128.167 98,132.5C 99,137.167 97.3333,138.5 93,136.5C 92,134.833 91,133.167 90,131.5C 89.6667,142.5 89.3333,153.5 89,164.5C 87.4773,166.62 85.6439,166.953 83.5,165.5C 82.8333,157.833 82.1667,150.167 81.5,142.5C 80.6687,149.811 80.1687,157.144 80,164.5C 78.33,166.698 76.33,167.032 74,165.5C 73.6667,153.833 73.3333,142.167 73,130.5C 71.9605,132.746 70.7938,134.913 69.5,137C 64.3752,138.543 62.7085,136.876 64.5,132C 62.1318,124.362 60.9651,116.529 61,108.5C 59.3948,106.175 57.7281,103.842 56,101.5C 55.3333,98.1667 55.3333,94.8333 56,91.5C 57.025,89.313 58.525,87.6464 60.5,86.5 Z"/></g>
<g><path style="opacity:0.894" fill="#000000" d="M 110.5,100.5 C 117.175,100.334 123.842,100.5 130.5,101C 135.041,107.245 139.208,113.745 143,120.5C 143.899,126.946 141.566,128.613 136,125.5C 134.333,122.5 132.667,119.5 131,116.5C 130.825,132.741 130.325,148.907 129.5,165C 126.447,167.203 123.947,166.703 122,163.5C 121.5,153.839 121.334,144.172 121.5,134.5C 120.5,134.5 119.5,134.5 118.5,134.5C 118.666,144.506 118.5,154.506 118,164.5C 114.988,167.25 112.321,166.917 110,163.5C 109.667,148.167 109.333,132.833 109,117.5C 107.224,120.941 105.057,124.108 102.5,127C 99.1432,128.141 97.1432,126.975 96.5,123.5C 100.424,115.308 105.09,107.641 110.5,100.5 Z"/></g>
<g><path style="opacity:0.865" fill="#000000" d="M 77.5,101.5 C 84.3318,99.7392 88.3318,102.239 89.5,109C 88.2502,115.901 84.2502,118.234 77.5,116C 72.189,111.045 72.189,106.212 77.5,101.5 Z"/></g>
</svg>
