<?xml version="1.0" encoding="UTF-8"?>
<!DOCTYPE svg PUBLIC "-//W3C//DTD SVG 1.1//EN" "http://www.w3.org/Graphics/SVG/1.1/DTD/svg11.dtd">
<svg xmlns="http://www.w3.org/2000/svg" version="1.1" width="300px" height="300px" style="shape-rendering:geometricPrecision; text-rendering:geometricPrecision; image-rendering:optimizeQuality; fill-rule:evenodd; clip-rule:evenodd" xmlns:xlink="http://www.w3.org/1999/xlink">
<g><path style="opacity:0.948" fill="#221912" d="M 130.5,-0.5 C 142.833,-0.5 155.167,-0.5 167.5,-0.5C 215.687,7.34812 252.687,32.0148 278.5,73.5C 278.5,77.8333 278.5,82.1667 278.5,86.5C 249.776,34.2009 205.276,8.53426 145,9.5C 106.549,8.89747 74.2154,22.5641 48,50.5C 34.179,66.1244 22.8457,83.4577 14,102.5C -5.79737,197.439 30.3693,259.272 122.5,288C 243.001,290.332 297.668,231.499 286.5,111.5C 289.195,111.933 291.362,113.266 293,115.5C 294.946,136.79 295.78,158.124 295.5,179.5C 276.46,251.692 229.793,291.692 155.5,299.5C 151.5,299.5 147.5,299.5 143.5,299.5C 66.0428,290.455 18.0428,248.122 -0.5,172.5C -0.5,158.5 -0.5,144.5 -0.5,130.5C 6.30704,78.8598 32.6404,40.6932 78.5,16C 86.0451,12.0606 93.7118,8.39397 101.5,5C 111.228,2.73577 120.895,0.902434 130.5,-0.5 Z"/></g>
<g><path style="opacity:1" fill="#95e200" d="M 278.5,86.5 C 281.167,94.8333 283.833,103.167 286.5,111.5C 297.668,231.499 243.001,290.332 122.5,288C 30.3693,259.272 -5.79737,197.439 14,102.5C 22.8457,83.4577 34.179,66.1244 48,50.5C 74.2154,22.5641 106.549,8.89747 145,9.5C 205.276,8.53426 249.776,34.2009 278.5,86.5 Z"/></g>
<g><path style="opacity:0.915" fill="#292c5b" d="M 278.5,73.5 C 290.52,88.8647 297.52,106.198 299.5,125.5C 299.5,136.167 299.5,146.833 299.5,157.5C 298.632,164.908 297.298,172.242 295.5,179.5C 295.78,158.124 294.946,136.79 293,115.5C 291.362,113.266 289.195,111.933 286.5,111.5C 283.833,103.167 281.167,94.8333 278.5,86.5C 278.5,82.1667 278.5,77.8333 278.5,73.5 Z"/></g>
<g><path style="opacity:1" fill="#0c0901" d="M 135.5,111.5 C 171.843,109.004 187.676,125.671 183,161.5C 173.602,182.28 157.768,189.78 135.5,184C 103.537,159.785 103.537,135.618 135.5,111.5 Z"/></g>
</svg>
