<?xml version="1.0" encoding="UTF-8"?>
<svg id="Layer_1" data-name="Layer 1" xmlns="http://www.w3.org/2000/svg" viewBox="0 0 144 144">
  <defs>
    <style>
      .cls-1 {
        fill: #040100;
      }

      .cls-1, .cls-2, .cls-3, .cls-4, .cls-5, .cls-6, .cls-7, .cls-8 {
        fill-rule: evenodd;
      }

      .cls-2 {
        fill: #110210;
      }

      .cls-3 {
        fill: #c9960c;
      }

      .cls-4 {
        fill: #d09b0c;
      }

      .cls-5 {
        fill: #040801;
      }

      .cls-6 {
        fill: #0f0801;
      }

      .cls-7 {
        fill: #dda80e;
      }

      .cls-8 {
        fill: #0e0801;
      }
    </style>
  </defs>
  <path class="cls-2" d="M70,0c1.81-.01,3.48,.49,5,1.5,23.57,23.07,46.57,46.57,69,70.5-22.43,23.93-45.43,47.43-69,70.5-1.11,.64-2.28,1.14-3.5,1.5C46.8,120.8,22.97,96.8,0,72c.17-.67,.33-1.33,.5-2C23.87,46.8,47.03,23.47,70,0Z"/>
  <path class="cls-7" d="M70,3c1.05-.15,2.05,.02,3,.5,23.04,22.71,45.71,45.71,68,69-22.5,23.83-45.67,47-69.5,69.5C47.67,119.5,24.5,96.33,2,72.5,24.49,49.17,47.16,26.01,70,3Z"/>
  <path class="cls-1" d="M45,54c-.84-1.88-1.17-3.88-1-6,5.49-2.01,7.15-.18,5,5.5-1.29,.49-2.63,.66-4,.5Z"/>
  <path class="cls-6" d="M44,48c-.17,2.12,.16,4.12,1,6v1c-1-.33-1.67-1-2-2-.28-1.91,.05-3.58,1-5Z"/>
  <path class="cls-6" d="M43,53c.33,1,1,1.67,2,2,2.02,2.19,3.69,4.69,5,7.5-.73,1.77-1.07,3.6-1,5.5,15.7,3.17,31.37,6.51,47,10-.16-1.7,.01-3.37,.5-5,2.33-1.57,4.49-3.23,6.5-5,2.12-.17,4.12,.16,6,1,2.31,2.81,3.97,5.98,5,9.5-2.67,3.12-1.67,4.62,3,4.5v4c-4.58-.6-9.08-1.6-13.5-3-2.3,1.46-4.46,3.13-6.5,5-3.45-1.55-3.78-3.55-1-6-16.26-4.25-32.59-8.25-49-12-.51,2.65-1.84,4.65-4,6-1.2-2.57-2.54-5.07-4-7.5-4.32-1-8.65-1.83-13-2.5-.16-1.7,.01-3.37,.5-5,1.36,.88,2.86,1.21,4.5,1-.26-1.48,.07-2.81,1-4,3.28-2.81,6.95-4.81,11-6Z"/>
  <path class="cls-3" d="M42,60c4.82-.17,6.82,2.16,6,7-5.02-.01-7.02-2.34-6-7Z"/>
  <path class="cls-8" d="M108,65c-1.28,1.47-2.95,2.13-5,2-2.58-2.11-2.58-4.27,0-6.5,3.99-1.18,5.66,.32,5,4.5Z"/>
  <path class="cls-6" d="M108,65c.33,1.33,.67,2.67,1,4-1.88-.84-3.88-1.17-6-1v-1c2.05,.13,3.72-.53,5-2Z"/>
  <path class="cls-4" d="M103,72c1.6,1.3,2.1,2.97,1.5,5-2.23,1.61-4.73,2.28-7.5,2,.59-3.59,2.59-5.92,6-7Z"/>
  <path class="cls-5" d="M71,78c1.87,.36,3.37,1.36,4.5,3,.5,5.32,.67,10.66,.5,16h-9c-.17-5.34,0-10.68,.5-16,1.15-1.14,2.31-2.14,3.5-3Z"/>
</svg>