<?xml version="1.0" encoding="UTF-8"?>
<svg id="Layer_1" data-name="Layer 1" xmlns="http://www.w3.org/2000/svg" viewBox="0 0 89.12 67.62">
  <defs>
    <style>
      .cls-1 {
        fill: #f6cb7b;
      }

      .cls-1, .cls-2, .cls-3, .cls-4, .cls-5, .cls-6, .cls-7, .cls-8 {
        fill-rule: evenodd;
      }

      .cls-2 {
        fill: #f9d086;
      }

      .cls-3 {
        fill: #6b5834;
      }

      .cls-4 {
        fill: #826b40;
      }

      .cls-5 {
        fill: #f7ce83;
      }

      .cls-6, .cls-9 {
        fill: #7e683e;
      }

      .cls-7 {
        fill: #77623b;
      }

      .cls-8 {
        fill: #f4cc81;
      }
    </style>
  </defs>
  <rect class="cls-9" x="0" width="89.12" height="67.62"/>
  <path class="cls-6" d="M1.12,.62H88.12c.17,.99-.16,1.66-1,2H2.12c-.84-.34-1.17-1.01-1-2Z"/>
  <path class="cls-6" d="M88.12,.62c1.33,22.33,1.33,44.67,0,67,.17-.99-.16-1.66-1-2V2.62c.84-.34,1.17-1.01,1-2Z"/>
  <path class="cls-1" d="M2.12,2.62v63H87.12V2.62H2.12Z"/>
  <path class="cls-7" d="M6.12,12.62c1.05-.15,2.05,.02,3,.5,7.04,6.71,13.71,13.71,20,21-.36,1.22-.86,2.39-1.5,3.5-6.84,6.38-13.67,12.71-20.5,19-1-14.65-1.33-29.32-1-44Z"/>
  <path class="cls-8" d="M7.12,14.62c7.07,6,13.73,12.67,20,20-6.32,6.82-12.82,13.49-19.5,20-.5-13.33-.67-26.66-.5-40Z"/>
  <path class="cls-6" d="M81.12,11.62c1.33,7.14,2,14.64,2,22.5-.33,7.5-.67,15-1,22.5-7.91-6.74-14.91-14.24-21-22.5,.17-.83,.33-1.67,.5-2.5,6.7-6.54,13.2-13.2,19.5-20Z"/>
  <path class="cls-5" d="M80.12,15.62c1.16,12.16,1.33,24.49,.5,37-6.43-5.63-12.26-11.79-17.5-18.5,5.49-6.33,11.16-12.49,17-18.5Z"/>
  <path class="cls-6" d="M14.12,9.62c9.93,10.14,20.1,20.14,30.5,30,6.99-6.16,13.83-12.49,20.5-19,.67,0,1,.33,1,1-6.38,7.55-13.54,14.21-21.5,20-5.8-5.13-11.63-10.29-17.5-15.5-5.51-5.68-10.84-11.51-16-17.5,.06-.54,.39-.88,1-1,.68,.74,1.35,1.41,2,2Z"/>
  <path class="cls-1" d="M65.12,20.62c-6.67,6.51-13.51,12.84-20.5,19-10.4-9.86-20.57-19.86-30.5-30,20.17-1.33,40.5-1.33,61,0-3.36,3.69-6.69,7.35-10,11Z"/>
  <path class="cls-6" d="M66.12,21.62c0-.67-.33-1-1-1,3.31-3.65,6.64-7.31,10-11-20.5-1.33-40.83-1.33-61,0-.65-.59-1.32-1.26-2-2-.61,.12-.94,.46-1,1-.54-.06-.88-.39-1-1,22.99-1,45.99-1.33,69-1-.64,2.26-1.81,4.26-3.5,6-3.15,3.13-6.31,6.13-9.5,9Z"/>
  <path class="cls-1" d="M22.12,4.62c14.83-1.16,29.83-1.33,45-.5l-1.5,1.5c-14.42-.99-28.92-1.32-43.5-1Z"/>
  <path class="cls-4" d="M55.12,37.62c4.11,2.93,8.11,6.1,12,9.5,3.87,4.7,7.87,9.2,12,13.5-23,1.33-46,1.33-69,0,6.79-7.29,13.79-14.46,21-21.5,1.33-.67,2.67-.67,4,0,7.32,7.69,13.99,7.19,20-1.5Z"/>
  <path class="cls-4" d="M73.12,57.62c2.25,.04,2.91,.87,2,2.5-20.67,.83-41.34,.67-62-.5,.12-.61,.46-.94,1-1,19.83,1.16,39.83,1.33,60,.5-.56-.38-.89-.88-1-1.5Z"/>
  <path class="cls-2" d="M73.12,57.62c.11,.62,.44,1.12,1,1.5-20.17,.83-40.17,.66-60-.5,6.26-5.92,12.59-11.92,19-18,1.82,1.31,3.48,2.81,5,4.5,3.54,1.5,7.21,1.84,11,1,2.51-1.85,5.01-3.68,7.5-5.5,5.81,5.64,11.31,11.31,16.5,17Z"/>
  <path class="cls-1" d="M22.12,62.62c15.67-.17,31.34,0,47,.5-8.43,1.12-16.93,1.62-25.5,1.5-7.5-.17-15-.33-22.5-.5,.56-.38,.89-.88,1-1.5Z"/>
  <path class="cls-3" d="M1.12,.62c-.17,.99,.16,1.66,1,2v63H87.12c.84,.34,1.17,1.01,1,2H.12C-.21,45.11,.12,22.78,1.12,.62Z"/>
</svg>