<?xml version="1.0" encoding="UTF-8"?>
<svg id="Layer_1" data-name="Layer 1" xmlns="http://www.w3.org/2000/svg" viewBox="0 0 92.02 92.51">
  <defs>
    <style>
      .cls-1, .cls-2 {
        fill: #0e3a95;
      }

      .cls-2, .cls-3, .cls-4, .cls-5, .cls-6, .cls-7 {
        fill-rule: evenodd;
      }

      .cls-3 {
        fill: #f8f6f6;
      }

      .cls-4 {
        fill: #f1f4f7;
      }

      .cls-5 {
        fill: #fbf9f7;
      }

      .cls-6 {
        fill: #f2f5f8;
      }

      .cls-7 {
        fill: #f5faf7;
      }
    </style>
  </defs>
  <rect class="cls-1" x=".33" width="91.69" height="92.44"/>
  <path class="cls-2" d="M2,.51c29.91-.33,59.74,0,89.5,1,.83,30.24,.66,60.41-.5,90.5-29.67,.67-59.33,.67-89,0l-1.5-1.5C-.17,61.18-.17,31.84,.5,2.51c.72-.54,1.22-1.21,1.5-2Z"/>
  <path class="cls-4" d="M23,13.51c6.5-.32,8.66,2.68,6.5,9-4.02,2.93-7.35,2.26-10-2-.42-3.15,.74-5.49,3.5-7Z"/>
  <path class="cls-7" d="M45,13.51h6V79.51h-6V13.51Z"/>
  <path class="cls-6" d="M68,13.51c7.55-.62,9.89,2.55,7,9.5-5.06,2.86-8.4,1.53-10-4,.62-2.09,1.62-3.92,3-5.5Z"/>
  <path class="cls-3" d="M20,78.51v-21c-2.89,.51-5.22-.16-7-2,1.01-4.02,2.01-8.02,3-12-1.15,2.1-2.48,4.1-4,6-1.45-.67-2.11-1.84-2-3.5,1.3-5.55,2.8-11.05,4.5-16.5l3.5-3.5c4.67-.67,9.33-.67,14,0l3.5,3.5c2.44,6.48,3.94,13.15,4.5,20-1.32,.17-2.49-.16-3.5-1-1.27-5.14-2.93-10.14-5-15-.33,2.71,0,5.37,1,8,1.77,4.98,3.6,9.98,5.5,15-2.24,.97-4.58,1.31-7,1,.17,7.01,0,14.01-.5,21-1.36,.88-2.86,1.21-4.5,1,.17-7.34,0-14.67-.5-22-.33,7-.67,14-1,21-1.62,1.3-3.12,1.3-4.5,0Z"/>
  <path class="cls-5" d="M72,77.51c.33-8.69,0-17.36-1-26-.61,.12-.94,.46-1,1,.17,8.67,0,17.34-.5,26-1.67,1.33-3.33,1.33-5,0-.33-14.67-.67-29.33-1-44-.33,5.33-.67,10.67-1,16-1.36,.88-2.86,1.21-4.5,1-.3-7.72,.03-15.39,1-23,.59-1.3,1.59-2.13,3-2.5,6-.67,12-.67,18,0l3.5,3.5c.5,7.33,.67,14.66,.5,22-1.64,.21-3.14-.12-4.5-1-.33-5.33-.67-10.67-1-16-.33,14.67-.67,29.33-1,44-2.23,1.48-4.07,1.15-5.5-1Z"/>
  <path class="cls-2" d="M16,43.51c.36-3.76,1.19-7.43,2.5-11,.48,4.03-.35,7.7-2.5,11Z"/>
  <path class="cls-2" d="M70,52.51c.06-.54,.39-.88,1-1,1,8.64,1.33,17.31,1,26-.67-8.33-1.33-16.67-2-25Z"/>
  <path class="cls-2" d="M13,55.51c1.78,1.84,4.11,2.51,7,2v21c-.99-6.48-1.32-13.15-1-20h-7c-.24-1.29,.1-2.29,1-3Z"/>
</svg>