<?xml version="1.0" encoding="UTF-8"?>
<!DOCTYPE svg PUBLIC "-//W3C//DTD SVG 1.1//EN" "http://www.w3.org/Graphics/SVG/1.1/DTD/svg11.dtd">
<svg xmlns="http://www.w3.org/2000/svg" version="1.1" width="399px" height="400px" style="shape-rendering:geometricPrecision; text-rendering:geometricPrecision; image-rendering:optimizeQuality; fill-rule:evenodd; clip-rule:evenodd" xmlns:xlink="http://www.w3.org/1999/xlink">
<g><path style="opacity:0.975" fill="#ff2417" d="M 160.5,-0.5 C 177.5,-0.5 194.5,-0.5 211.5,-0.5C 284.113,5.6582 338.28,40.3249 374,103.5C 385.688,124.747 393.854,147.08 398.5,170.5C 398.5,186.833 398.5,203.167 398.5,219.5C 391.701,288.284 358.368,339.784 298.5,374C 283.424,382.372 267.757,389.372 251.5,395C 241.033,396.597 230.7,398.097 220.5,399.5C 205.167,399.5 189.833,399.5 174.5,399.5C 116.881,393.448 71.0481,367.114 37,320.5C 23.4098,301.325 12.4098,280.659 4,258.5C 2.32017,247.71 0.820173,237.043 -0.5,226.5C -0.5,210.5 -0.5,194.5 -0.5,178.5C 6.16557,112.033 38.1656,61.8664 95.5,28C 116.299,16.2614 137.966,6.76138 160.5,-0.5 Z"/></g>
<g><path style="opacity:1" fill="#fffafa" d="M 168.5,20.5 C 274.196,14.3928 344.363,61.0594 379,160.5C 393.227,277.225 343.394,349.391 229.5,377C 124.176,388.12 53.3429,344.287 17,245.5C 1.31228,125.461 51.8123,50.4606 168.5,20.5 Z"/></g>
<g><path style="opacity:1" fill="#ff1f0f" d="M 118.5,87.5 C 164.666,86.2847 210.666,88.4513 256.5,94C 279.293,121.392 282.959,151.225 267.5,183.5C 253.496,194.661 237.496,201.161 219.5,203C 248.886,236.612 275.219,272.445 298.5,310.5C 297.271,311.281 295.938,311.781 294.5,312C 288.5,312.667 282.5,312.667 276.5,312C 273.804,311.235 271.304,310.068 269,308.5C 249.182,274.353 227.015,241.853 202.5,211C 180.811,205.731 158.811,203.564 136.5,204.5C 136.667,240.502 136.5,276.502 136,312.5C 130.333,313.833 124.667,313.833 119,312.5C 118.5,237.501 118.333,162.501 118.5,87.5 Z"/></g>
<g><path style="opacity:1" fill="#fff7f8" d="M 136.5,108.5 C 168.538,108.001 200.538,108.834 232.5,111C 262.23,122.661 267.897,141.661 249.5,168C 242.232,172.8 234.566,176.8 226.5,180C 210.896,182.094 195.23,183.261 179.5,183.5C 165.167,183.5 150.833,183.5 136.5,183.5C 136.5,158.5 136.5,133.5 136.5,108.5 Z"/></g>
<g><path style="opacity:1" fill="#ffb9b5" d="M 136.5,108.5 C 136.5,133.5 136.5,158.5 136.5,183.5C 150.833,183.5 165.167,183.5 179.5,183.5C 165.01,184.496 150.343,184.829 135.5,184.5C 135.169,158.995 135.502,133.661 136.5,108.5 Z"/></g>
</svg>
