<?xml version="1.0" encoding="UTF-8"?>
<svg id="Layer_1" data-name="Layer 1" xmlns="http://www.w3.org/2000/svg" viewBox="0 0 94.52 75.21">
  <defs>
    <style>
      .cls-1 {
        fill: #fe0000;
      }

      .cls-1, .cls-2 {
        fill-rule: evenodd;
      }

      .cls-2 {
        fill: #fefffe;
      }
    </style>
  </defs>
  <path class="cls-1" d="M83.52,.19c7.61-1.05,10.95,2.28,10,10-.17,16.68,.17,33.34,1,50-.17,3.33-.33,6.67-.5,10l-2.5,2.5c-27.84,.72-55.68,1.56-83.5,2.5-3.27,.2-5.61-1.13-7-4C.25,49.19-.08,27.19,.02,5.19c.37-.92,.87-1.75,1.5-2.5C28.84,1.41,56.17,.57,83.52,.19Z"/>
  <path class="cls-2" d="M82.52,9.19c1.46,10.96,2.12,22.13,2,33.5-.01,7.08-.34,14.08-1,21-24.33,.56-48.67,1.06-73,1.5-.57-17.89-1.24-35.73-2-53.5,24.83-.76,49.5-1.6,74-2.5Z"/>
  <path class="cls-1" d="M51.52,15.19h6v10h-17c.08,2.71,.41,5.37,1,8,5.32-.48,10.66-.81,16-1,.43,3.29,.43,6.45,0,9.5-5.32,.5-10.66,.67-16,.5v8c5.31-.86,10.65-1.03,16-.5,.95,3.06,1.28,6.22,1,9.5-7.01,.17-14.01,0-21-.5-3.16-1.48-5-3.98-5.5-7.5-.95-10.43-.62-20.77,1-31l3.5-3.5c5.18-.17,10.18-.67,15-1.5Z"/>
</svg>