<?xml version="1.0" encoding="UTF-8"?>
<svg id="Layer_1" data-name="Layer 1" xmlns="http://www.w3.org/2000/svg" viewBox="0 0 81.04 81.01">
  <defs>
    <style>
      .cls-1 {
        fill: #f7f9fd;
      }

      .cls-1, .cls-2, .cls-3, .cls-4, .cls-5, .cls-6, .cls-7, .cls-8 {
        fill-rule: evenodd;
      }

      .cls-2 {
        fill: #c4b6f1;
      }

      .cls-3 {
        fill: #e0e9fa;
      }

      .cls-4 {
        fill: #fefefe;
      }

      .cls-5 {
        fill: #99cafd;
      }

      .cls-6 {
        fill: #8f7bf1;
      }

      .cls-7 {
        fill: #525ce6;
      }

      .cls-8 {
        fill: #555fe6;
      }
    </style>
  </defs>
  <path class="cls-8" d="M80.02,4h-1c-.45-.96-1.12-1.79-2-2.5C52.28,.68,27.61,.84,3.02,2h-1c.11-.62,.44-1.12,1-1.5C28.02-.17,53.02-.17,78.02,.5c1.32,.82,1.99,1.98,2,3.5Z"/>
  <path class="cls-7" d="M78.02,78c-.67,0-1,.33-1,1-24.34,.17-48.67,0-73-.5-.56-.38-.89-.88-1-1.5-.17-24.34,0-48.67,.5-73,12.26-.66,24.59-1,37-1s24.74,.34,37,1c.5,24.66,.67,49.33,.5,74Z"/>
  <path class="cls-6" d="M2.02,2h1c-.28,.79-.78,1.46-1.5,2-.5,24.66-.67,49.33-.5,74C-.14,53.17-.31,28.17,.52,3c.38-.56,.88-.89,1.5-1Z"/>
  <path class="cls-3" d="M79.02,4c.33,24.84,0,49.51-1,74,.17-24.67,0-49.34-.5-74-12.26-.66-24.59-1-37-1S15.78,3.34,3.52,4c-.5,24.33-.67,48.66-.5,73-.67,.33-1.33,.67-2,1C.85,53.33,1.02,28.66,1.52,4c.72-.54,1.22-1.21,1.5-2C27.61,.84,52.28,.68,77.02,1.5c.88,.71,1.55,1.54,2,2.5Z"/>
  <path class="cls-2" d="M79.02,4h1c1.16,24.16,1.33,48.5,.5,73-.47,1.43-1.3,2.6-2.5,3.5-25,.67-50,.67-75,0,24.84-.17,49.5-.67,74-1.5,0-.67,.33-1,1-1,1-24.49,1.33-49.16,1-74Z"/>
  <path class="cls-5" d="M46.02,8V26h5c-1.77,.96-3.77,1.29-6,1-.32-6.52,.01-12.86,1-19Z"/>
  <path class="cls-4" d="M46.02,8h6c.32,6.19-.01,12.19-1,18h-5V8Z"/>
  <path class="cls-1" d="M41.02,8h3c.33,6.37,0,12.7-1,19-1.3,.59-2.13,1.59-2.5,3-.67,7-.67,14,0,21,.37,1.41,1.2,2.41,2.5,3,1,6.3,1.33,12.63,1,19-5.88-1.38-9.72-5.05-11.5-11-4.64-14.65-4.64-29.32,0-44,1.98-4.14,4.81-7.47,8.5-10Z"/>
  <path class="cls-5" d="M51.02,55h-5v18c-.99-6.14-1.32-12.48-1-19,2.23-.29,4.23,.04,6,1Z"/>
  <path class="cls-4" d="M51.02,55c.99,5.81,1.32,11.81,1,18h-6v-18h5Z"/>
</svg>