<?xml version="1.0" ?>
<!-- Uploaded to: SVG Repo, www.svgrepo.com, Generator: SVG Repo Mixer Tools -->
<svg fill="#000000" width="800px" height="800px" viewBox="0 0 64 64" xmlns="http://www.w3.org/2000/svg">
<g id="Ring">
<path d="M39.93,15.13a16.85,16.85,0,0,0-7.89,2A16.89,16.89,0,1,0,32,46.86a16.87,16.87,0,1,0,8-31.73ZM24.07,46.87a14.93,14.93,0,1,1,11.58-5.59,10.15,10.15,0,0,1-2.24-1.4,12.29,12.29,0,1,0-5.65,3.77,18,18,0,0,0,2.23,2A14.88,14.88,0,0,1,24.07,46.87ZM37.65,22a10.3,10.3,0,0,1,2.28-.27,10.23,10.23,0,1,1,0,20.46A10,10,0,0,1,37.66,42a16.8,16.8,0,0,0,0-19.93ZM32,25.57a10.21,10.21,0,0,1,0,12.89,10.15,10.15,0,0,1,0-12.89ZM26.34,22a16.8,16.8,0,0,0,0,19.93,9.74,9.74,0,0,1-2.28.27,10.23,10.23,0,1,1,0-20.46A10,10,0,0,1,26.34,22ZM39.93,46.87A14.84,14.84,0,0,1,28.35,22.72a10.13,10.13,0,0,1,2.26,1.42,12.27,12.27,0,1,0,5.63-3.78,16.65,16.65,0,0,0-2.23-2,14.85,14.85,0,1,1,5.92,28.47Z"/>
</g>
</svg>