<svg width="800" height="800" viewBox="0 0 800 800" fill="none" xmlns="http://www.w3.org/2000/svg">
<path d="M499.307 189.348C464.883 189.496 431.02 198.08 400.682 214.348C368.543 196.955 332.441 188.201 295.905 188.944C259.369 189.687 223.652 199.9 192.247 218.584C160.842 237.269 134.824 263.785 116.738 295.539C98.6532 327.294 89.1197 363.198 89.0705 399.741C89.0213 436.285 98.4582 472.215 116.458 504.017C134.458 535.82 160.404 562.406 191.759 581.175C223.114 599.944 258.804 610.254 295.337 611.095C331.87 611.935 367.997 603.279 400.182 585.973C428.428 601.153 459.765 609.691 491.808 610.938C523.85 612.185 555.756 606.108 585.096 593.169C614.437 580.23 640.44 560.769 661.128 536.268C681.816 511.767 696.644 482.871 704.484 451.777C712.323 420.683 712.968 388.21 706.37 356.829C699.771 325.449 686.102 295.986 666.404 270.683C646.705 245.379 621.495 224.902 592.691 210.808C563.888 196.714 532.249 189.374 500.182 189.348H499.307ZM301.057 586.098C258.721 586.29 217.578 572.082 184.382 545.807C151.187 519.531 127.911 482.75 118.378 441.501C108.844 400.252 113.618 356.988 131.917 318.81C150.216 280.633 180.952 249.812 219.078 231.407C257.204 213.002 300.456 208.108 341.731 217.527C383.006 226.947 419.852 250.12 446.219 283.242C472.587 316.365 486.909 357.469 486.834 399.805C486.759 442.141 472.291 483.194 445.807 516.223C435.751 511.634 426.338 505.751 417.807 498.723C441.731 470.458 454.64 434.503 454.159 397.476C453.677 360.448 439.838 324.841 415.188 297.208C390.538 269.574 356.736 251.774 320.004 247.084C283.272 242.394 246.081 251.13 215.279 271.683C184.476 292.237 162.134 323.224 152.364 358.943C142.595 394.661 146.056 432.706 162.11 466.075C178.164 499.445 205.732 525.892 239.737 540.55C273.743 555.208 311.899 557.089 347.182 545.848C355.763 554.941 365.087 563.303 375.057 570.848C351.693 580.94 326.507 586.131 301.057 586.098ZM470.807 275.223C480.152 273.039 489.711 271.907 499.307 271.848C533.221 271.848 565.747 285.32 589.728 309.301C613.709 333.283 627.182 365.808 627.182 399.723C627.182 433.637 613.709 466.163 589.728 490.144C565.747 514.125 533.221 527.598 499.307 527.598C489.789 527.889 480.269 527.093 470.932 525.223C497.52 489.134 511.863 445.486 511.863 400.66C511.863 355.835 497.52 312.186 470.932 276.098L470.807 275.223ZM400.182 319.848C418.708 342.61 428.823 371.062 428.823 400.41C428.823 429.759 418.708 458.21 400.182 480.973C381.523 458.271 371.322 429.796 371.322 400.41C371.322 371.024 381.523 342.549 400.182 319.848ZM329.432 275.223C302.844 311.311 288.501 354.96 288.501 399.785C288.501 444.611 302.844 488.259 329.432 524.348C320.098 526.592 310.532 527.725 300.932 527.723C284.139 527.723 267.511 524.415 251.996 517.989C236.482 511.563 222.385 502.143 210.511 490.269C198.636 478.395 189.217 464.298 182.791 448.783C176.365 433.269 173.057 416.641 173.057 399.848C173.057 383.055 176.365 366.427 182.791 350.912C189.217 335.398 198.636 321.301 210.511 309.426C222.385 297.552 236.482 288.133 251.996 281.707C267.511 275.28 284.139 271.973 300.932 271.973C310.525 271.959 320.088 273.049 329.432 275.223ZM499.307 586.098C464.286 586.154 429.965 576.295 400.312 557.661C370.66 539.027 346.888 512.38 331.746 480.802C316.605 449.224 310.711 414.004 314.748 379.217C318.784 344.429 332.586 311.495 354.557 284.223C364.715 288.868 374.214 294.836 382.807 301.973C359.003 330.26 346.218 366.193 346.804 403.159C347.39 440.124 361.309 475.634 385.998 503.152C410.687 530.67 444.485 548.344 481.17 552.921C517.856 557.498 554.96 548.671 585.654 528.063C616.348 507.455 638.565 476.454 648.216 440.766C657.867 405.078 654.303 367.105 638.18 333.836C622.056 300.567 594.459 274.241 560.466 259.705C526.474 245.168 488.375 243.399 453.182 254.723C444.66 245.569 435.331 237.202 425.307 229.723C450.603 218.732 478.03 213.517 505.595 214.455C533.159 215.394 560.168 222.463 584.658 235.149C609.147 247.835 630.503 265.819 647.17 287.793C663.838 309.768 675.4 335.18 681.015 362.183C686.63 389.185 686.157 417.1 679.63 443.897C673.104 470.694 660.688 495.7 643.285 517.098C625.883 538.495 603.931 555.745 579.026 567.594C554.12 579.443 526.887 585.593 499.307 585.598V586.098Z" fill="#E06AC6"/>
</svg>
