<?xml version="1.0" encoding="UTF-8"?>
<svg id="Layer_1" data-name="Layer 1" xmlns="http://www.w3.org/2000/svg" viewBox="0 0 100 75">
  <defs>
    <style>
      .cls-1 {
        fill: #778eee;
      }

      .cls-1, .cls-2, .cls-3, .cls-4, .cls-5, .cls-6, .cls-7 {
        fill-rule: evenodd;
      }

      .cls-2 {
        fill: #4762e8;
      }

      .cls-3 {
        fill: #195ee6;
      }

      .cls-4 {
        fill: #a597ec;
      }

      .cls-5 {
        fill: none;
        stroke: #2660e7;
        stroke-miterlimit: 10;
        stroke-width: 2px;
      }

      .cls-6 {
        fill: #0e5fe7;
      }

      .cls-7 {
        fill: #57a2f2;
      }

      .cls-8 {
        fill: #0f5de6;
      }
    </style>
  </defs>
  <path class="cls-5" d="M1,1H99V74H1V1Z"/>
  <g>
    <path class="cls-8" d="M14,22.5c5.75,1.86,11.48,3.78,17.19,5.73-5.31-2.08-10.62-4.15-15.92-6.23-.42,.17-.85,.33-1.27,.5Z"/>
    <path class="cls-8" d="M70.44,16.86c-7.01-2.24-14-4.48-20.94-6.7-6.94,2.22-13.93,4.46-20.94,6.7-4.46,1.63-8.89,3.34-13.29,5.14,5.31,2.08,10.62,4.15,15.92,6.23,6.12,2.09,12.23,4.23,18.31,6.42,6.08-2.19,12.19-4.33,18.31-6.42,5.31-2.08,10.62-4.15,15.92-6.23-4.4-1.8-8.83-3.5-13.29-5.14Z"/>
    <path class="cls-2" d="M80,26h3c.42,3.88-.08,7.54-1.5,11-1.42-3.46-1.92-7.12-1.5-11Z"/>
    <path class="cls-3" d="M68.05,31c-.33,.1-.66,.22-.99,.33-.02-.11-.04-.22-.06-.33-6.02,1.7-12.01,3.55-17.97,5.51-5.97-1.96-11.96-3.81-17.97-5.51-.02,.11-.04,.22-.06,.33-.33-.11-.66-.22-.99-.33-.09,2.69-.08,5.39,.03,8.07-.12,2.27-.12,4.58,.03,6.93,6.3,4.72,12.63,7.03,18.97,6.96,6.35,.07,12.67-2.24,18.97-6.96,.14-2.35,.15-4.66,.03-6.93,.1-2.69,.12-5.38,.03-8.07Z"/>
    <path class="cls-6" d="M83,41h-3v-3h3v3Z"/>
    <path class="cls-7" d="M84,44v18c.03,2.12-.97,3.45-3,4v-21c.89-.61,1.89-.94,3-1Z"/>
    <path class="cls-4" d="M83,41c1.29,.56,2.12,1.56,2.5,3,.17,3,.33,6,.5,9-.02,3.41-.68,6.41-2,9v-18c-.61-.89-.94-1.89-1-3Z"/>
    <path class="cls-1" d="M81,45v21c-.83-6.82-1.33-13.82-1.5-21-1.33,24-2,24-2,0,.83-1,1.67-2,2.5-3,.02,.89,.35,1.89,1,3Z"/>
  </g>
</svg>