<?xml version="1.0" encoding="UTF-8"?>
<svg id="Layer_1" data-name="Layer 1" xmlns="http://www.w3.org/2000/svg" viewBox="0 0 127.37 79.8">
  <path d="M65.34,1.38l-2.5,1.5,3.6-.2c2.6-.1,3.5-.6,3.2-1.5-.6-1.6-1.2-1.6-4.3,.2Z"/>
  <path d="M71.24,1.78c.7,1.1,1.6,2.1,2.2,2.1s.7-.5,.3-1.2-.3-.8,.4-.4c3,1.8,.6,2.5-7,1.9l-8.3-.6v5.8c0,7-1.8,8.4-4,3.1-.8-1.9-1.5-4.2-1.5-5.1,0-2.5,1.8-1.7,2.8,1.2l1,2.8,.1-3.3,.1-3.2h-15.7l.7,4.5c.4,2.5,.4,4.8-.1,5-1.5,1-6.9-4.6-6.9-7.1,0-1.3,.5-2.4,1-2.4,.6,0,1,.9,1,1.9,0,1.1,.5,2.3,1,2.6,.6,.3,1,.2,1-.4,0-.5,.2-1.6,.5-2.4,.4-1-.9-1.9-4.7-3-5-1.6-5.7-1.6-13.3,.2-8.5,2.1-11.9,4.6-13.1,9.9-.4,1.5-1.6,4.2-2.7,6.1-1.4,2.4-1.6,3.2-.6,2.9,.8-.3,1.3-1.1,1.1-1.8-.1-.6,.3-1,1-.7,1.7,.5,1.6,14.7-.1,23.9-1.5,7.5-1,10,2.2,11.7l2.2,1.1-2.3-.6c-2.1-.5-2.3-.3-2,2.3,.2,2,.8,2.8,2.3,2.8,1.6,0,2.1-.8,2.5-4.5,.7-5.5,6.9-15.1,11.7-18.1,1.8-1.1,3.1-2.5,2.8-3-1-1.6-8.3-3-12.4-2.3-2.5,.4-4.1,.3-4.1-.3,0-2.7,15.9-1.9,17.6,.8,.4,.6,1.1,.6,2-.2,2.5-2.1-4.9-5.1-12.8-5.3-6.9-.1-8.8-1.1-4.3-2.2,7.6-1.9,21.4,3.6,18.4,7.2-1.4,1.7-1.7,1.5,5.4,4.8,4.7,2.2,6.6,2.6,10.1,2.1,3.1-.5,4.5-.3,5.4,.8,2.5,3,4.2,11.4,4.2,21,0,8.9,.2,9.9,1.9,10.4,1.1,.3,2.4,1.8,3,3.4,.9,2.6,1.5,2.9,5,2.9,4.5,0,5.1-1.1,2.2-3.6-7.5-6.4-7.3-6.1-6.9-12.4,.2-5.1,0-6-1.4-6-.9,0-1.9-.4-2.2-.9-.4-.5,.4-.7,1.5-.4,1.5,.4,2.7,0,3.5-1.2,2.1-2.8,1.7-3.5-1.5-3.5-1.7,0-3.2-.4-3.5-.8-.5-.8,3.6-.8,6.1-.1,.6,.2,1.9-.5,2.7-1.6,1.4-1.8,1.5-1.1,1.6,9.2,0,11.8,.4,14.3,2.5,14.3,.7,0,1.8,1.3,2.4,3,.9,2.7,1.4,3,5,3,5.1,0,5.4-2,.9-5.1-4.9-3.3-5.8-4.8-5.8-9.7,0-3.2,1.3-7.4,4.6-14.5,2.5-5.4,4.3-10.5,4-11.3-.6-1.6,3-4.2,9.4-6.9,7.7-3.3,8.7-4.2,8.2-7.4-.4-3.3,1.5-10.1,2.8-10.1,.5,0,.2,1.6-.6,3.5-1.8,4.4-1.8,8.5,0,8.5,.8,0,1.7-.7,2-1.5,.3-.9,1.1-1.5,1.8-1.4,2.5,.3,3.9-.1,3.4-1-.8-1.2,1.4-2.8,4.9-3.6,1.7-.4,4.1-1.4,5.5-2.3,2.3-1.4,2.4-1.4,1.1,.1-.8,1-3.3,2.2-5.8,2.8-2.4,.6-4.6,1.5-4.9,2-.8,1.4,4.3,1,8.3-.6,3-1.3,3.4-1.3,2.3,0-.6,.7-3.3,1.7-5.8,2.1-2.6,.3-5.8,1.3-7.1,2.1-1.8,1.2-2.2,1.2-1.6,.2,.5-.8,.5-1.1,0-.7-2.1,1.9-1.4,8.4,1.4,13.2,1.7,2.8,3.1,4.3,3.5,3.7,1-1.6,4.1-1.4,5.6,.4,.7,.9,1.5,1.4,1.7,1.1,.7-.7,.8-16.4,.1-16-.3,.2-.4-.5-.1-1.7,.4-1.2,.9-1.6,1.3-1,.6,1.1,4-4.9,4-7.3,0-.7,.9-2.1,2-3.1,2-1.8,2.8-7.5,1.1-7.5-.5,0-1.4,1.4-2.1,3.1-.9,2-1.8,2.8-2.8,2.4-1-.3-1.2,0-.8,1s-.1,1.5-1.4,1.5c-1,0-4.2,1.4-7.1,3-2.8,1.7-5.4,2.9-5.6,2.6-.3-.2,1.7-1.6,4.4-3,4.7-2.5,4.8-2.5,1.6-2.6-2.5,0-3.5-.7-5.2-3.5-2.3-4-4.1-4.6-3.4-1.3,.3,1.9,.2,1.9-1.2-.5-1.1-2-2.3-2.7-3.8-2.5-1.2,.1-2.8-.1-3.4-.5-.7-.5-1.3-.4-1.3,.2,0,.5,.5,1.3,1,1.6,1.3,.8,1.3,3.5-.1,3.5-.5,0-.8-.4-.5-.9,.7-1.1-3-5.8-3.9-4.9-.4,.3-.2,1.6,.5,2.7,.6,1.2,.7,2.1,.1,2.1-.5,0-1.1-.5-1.3-1.2-.3-.8-.6-.9-1.1-.1-.3,.5,.4,3,1.7,5.4,1.4,2.4,3.5,6.3,4.7,8.6,1.3,2.4,1.9,4.6,1.5,5-.5,.5-1.1,.3-1.3-.3s-2.4-4.4-4.8-8.5c-2.5-4.1-4.3-7.9-4.1-8.6,.5-1.1-1.4-2.3-3.6-2.3-2,0,.2,6.4,3.2,9.5,1.6,1.7,3.6,5.2,4.4,7.8,1.3,4.4,1.3,4.8-.2,4.5-1-.2-1.9-1.7-2.3-3.9-.3-2.2-2.1-5.5-4.2-8-3.8-4.4-4.6-7.6-2.5-10.9,1.2-1.8,1.4-1.8,3.1-.3q1.7,1.6,1.2-.3c-.7-1.9-.6-1.9,.9,0,1.8,2.2,3.2,1.6,2.2-.9-.3-.9-1.4-1.5-2.3-1.3-1,.1-2.4-.1-3-.5-.8-.5-1.3-.3-1.3,.4,0,.8-.5,.7-1.7-.2-.9-.8-1.8-1.3-2-1.2-.1,.2-.4,.2-.5,.2-.2-.1-1.4-.2-2.8-.3s-3.1-.5-3.8-1c-1.1-.7-1.2-.4-.3,1.3Zm8.3,2c.3-.9,.6-.7,1.1,.4,.5,1.2,.1,1.7-1.3,1.7-1.6,0-2,.7-2,3.6,0,4.1,2.6,10.3,4.7,11.1,.7,.3,1.3,1.1,1.3,1.8s.9,2.4,2,3.8c2,2.6,2.6,4.7,1.3,4.7-1.3-.1-9.4-12.7-10.9-16.8-1.7-4.8-1.7-6.7,0-8.2,.8-.6,1.2-1.9,1-2.8-.5-1.5-.4-1.5,.9,.1,1.1,1.3,1.6,1.4,1.9,.6ZM29.94,6.08c.4,1.2,3.1,4.6,6,7.6,7.7,7.6,8.3,12.1,2.3,18.1-4.4,4.4-5.7,2.7-1.4-2,1.9-2.1,3.5-4.8,3.5-5.9,0-1.2-2.9-5.2-6.5-9-3.6-3.8-6.5-7.8-6.5-9,0-2.7,1.7-2.6,2.6,.2Zm-5.4,2c1.4,1.8,3.4,5.1,4.6,7.3,1.1,2.2,3.2,5.1,4.6,6.4,1.4,1.3,2.3,2.8,2,3.3-.4,.6-2-.4-3.8-2-1.7-1.7-6.5-4.7-10.6-6.8-4.5-2.3-6.8-3.9-5.8-4.1,.9-.3,3.9,.7,6.7,2.2,2.8,1.4,5.1,2.2,5.1,1.9s-1.6-2.8-3.5-5.4c-1.9-2.6-3.5-5-3.5-5.4,0-1.5,2-.3,4.2,2.6Zm38.8,3.1c0,3.9-2.8,10.4-5.3,12.6-2.3,1.8-2.9-.4-.7-2.4,2.6-2.4,4.3-7.9,3.5-11.5-.4-1.6-.3-3.5,.1-4.1,1.1-1.8,2.4,1.1,2.4,5.4Zm4-1c0,2.3-.5,6.2-1.1,8.6-1.2,5.2-.4,6.3,8.4,12.3,4.1,2.8,5.6,4.3,4.8,5.1-.7,.7-2.2,0-5-2.4-2.2-1.9-5.6-4.7-7.6-6.2l-3.5-2.9-3.9,2.9c-5.1,3.5-6.4,6.3-1.7,3.4,1.8-1.2,4.2-2,5.2-2q1.9,.1,0,.6c-1,.3-3.9,1.6-6.4,2.9s-4.7,2.2-5,1.9c-1.1-1.1,2.5-5.9,6-8.1,4.8-3.1,6.6-6.6,7.4-14.7,.7-7.2,2.4-8.2,2.4-1.4Zm4.8,4l-.3,5.8,5.8,5.4c3.1,2.9,5.7,6,5.7,6.9,0,2.2-1.7,2-2.4-.2-.3-1-2.8-3.5-5.6-5.5l-5-3.7v-6.8c0-3.7-.4-7.4-.9-8.2-1.5-2.2,0-3.5,1.6-1.4,.9,1.2,1.3,3.9,1.1,7.7Zm-25.8-5.3c0,1.7,.7,4.7,1.5,6.7,2.3,5.4,1.8,8.6-2,14.3-1.9,2.9-3.5,5.6-3.5,6.1s-.4,.9-1,.9c-1.9,0-1-2.5,2.5-7.4,1.9-2.7,3.5-5.4,3.5-6s-.9-4.1-2.1-7.7c-2.1-6.5-2.1-9.9,.1-9.9,.5,0,1,1.4,1,3Zm6.1,.2c.8,1.8,1.4,6.2,1.4,9.8,0,5.3-.6,7.5-2.9,11.7-1.6,2.9-3.5,5.3-4.3,5.3-.9,0-.6-1.1,1.1-3.8,3.9-5.8,5.1-13,3.2-19.6-1.9-6.3-1.9-6.6-.7-6.6,.5,0,1.5,1.5,2.2,3.2Zm47.5,2c-.9,.5-1.6,2-1.6,3.3,0,3.6-1.5,3.1-3.9-1.3l-2.1-3.7,2.3,2.7,2.3,2.8,1-2.9c.7-1.8,.8-3.5,.2-4.7-.6-1.3-.2-1.1,1.2,.5,1.8,2.2,1.9,2.6,.6,3.3Zm6.6,4.4c-1.2,.8-2.9,3-3.7,4.7-1.1,2.4-1.3,2.6-.9,.7,.9-3.8,3.3-7,5.1-7,1.4,0,1.3,.3-.5,1.6ZM26.04,22.88c8.1,5.1,7.8,4.8,7,5.6-.3,.4-3.7-1.2-7.6-3.5-3.8-2.3-8.5-4.5-10.5-4.8-5.5-.9-5.8-2.7-.3-2.1,3,.4,6.9,2,11.4,4.8Zm87.3,1.7c-3.9,.5-5.8,1.8-7,4.8-.7,1.6-.9,1.7-.9,.3-.1-2.9,3.9-5.8,7.8-5.6l3.6,.1-3.5,.4Zm-2.5,4.5c-1.1,.6-2.6,1.9-3.3,2.7-1.1,1.3-1.2,1.3-.6,.1,1.3-2.8,2.6-4,4.3-4,1.3,.1,1.2,.3-.4,1.2Zm5.2-.6c-.3,.3-1.2,.4-1.9,.1-.8-.3-.5-.6,.6-.6,1.1-.1,1.7,.2,1.3,.5Zm-42.7,7.7c1.3,1,2,1.7,1.4,1.7-.7,0-2.9-1.7-5.1-3.8-2.1-2-2.8-2.8-1.4-1.6,1.4,1.1,3.7,2.8,5.1,3.7Zm37.3-2.5c-1,1-2,1.4-2.2,.9s.3-1.3,1-1.8c2.4-1.5,3-1,1.2,.9Zm6.2-.8c.3,.6-.1,.7-.9,.4-1.8-.7-2.1-1.4-.7-1.4,.6,0,1.3,.4,1.6,1Zm-54.2,1.7c-.7,.2-1.9,.2-2.5,0-.7-.3-.2-.5,1.2-.5s1.9,.2,1.3,.5Zm-5.8,1.3c-2.7,1.2-4.3,1.2-2.5,0,.8-.5,2.2-.9,3-.9,1,0,.8,.3-.5,.9Zm12.9,1.1c1.4,1.1,2.6,2.5,2.6,3.2,0,.6-.6,.3-1.2-.6-.7-.9-2.6-2.3-4.3-3.2-1.7-.8-2.3-1.5-1.4-1.5s2.8,.9,4.3,2.1Zm-56.1-.4c-.7,.2-1.9,.2-2.5,0-.7-.3-.2-.5,1.2-.5s1.9,.2,1.3,.5Zm9.1,.2c.3,.4-.6,.6-1.9,.3-1.4-.2-2.5-.6-2.5-.8,0-.8,3.9-.4,4.4,.5Zm94-.1c.2,.4-1.3,.7-3.4,.7s-3.6-.3-3.4-.7c.3-.5,1.8-.8,3.4-.8s3.1,.3,3.4,.8Zm-51.2,3.4c1.3,1.3,1.5,1.6,.5,.8-1.1-.8-4-1.5-6.7-1.5s-4.6-.3-4.3-.8c1-1.7,8.2-.7,10.5,1.5Zm-48.4,.5c-1.6,.2-4,.2-5.5,0-1.6-.2-.3-.4,2.7-.4s4.3,.2,2.8,.4Zm43.8,3.1c-.6,.6-5.6-1-5.6-1.8,0-.5,1.3-.3,3,.3,1.6,.6,2.8,1.3,2.6,1.5Zm-44.8-.1c-1,.2-2.8,.2-4,0-1.3-.2-.5-.4,1.7-.4,2.2-.1,3.2,.1,2.3,.4Zm50.5,1c-.7,.2-2.1,.2-3,0-1-.3-.4-.5,1.2-.5,1.7,0,2.4,.2,1.8,.5Zm-53.2,2.1c-1.3,.2-2.7,0-3.2-.5-.6-.6,.3-.7,2.3-.4,2.8,.4,2.9,.6,.9,.9Zm48.4,.3l4,.6-3.6,.2c-1.9,0-4.4-.6-5.5-1.5-1-.8-1.2-1.2-.4-.8,.8,.5,3.3,1.1,5.5,1.5Zm-50.1,2.8c.4,.5-.3,.7-1.4,.4-2.3-.6-2.6-1.3-.6-1.3,.8,0,1.7,.4,2,.9Zm-.4,2.7c0,.2-.7,.4-1.5,.4s-1.5-.4-1.5-1c0-.5,.7-.7,1.5-.4,.8,.4,1.5,.8,1.5,1Zm50,.4c1.8,1.2,.2,1.2-2.5,0-1.3-.6-1.5-.9-.5-.9,.8,0,2.2,.4,3,.9Zm-50.3,6.6c-.3,.3-1.2,.4-1.9,.1-.8-.3-.5-.6,.6-.6,1.1-.1,1.7,.2,1.3,.5Zm49,0c-.3,.3-1.2,.4-1.9,.1-.8-.3-.5-.6,.6-.6,1.1-.1,1.7,.2,1.3,.5Zm0,4c-.3,.3-1.2,.4-1.9,.1-.8-.3-.5-.6,.6-.6,1.1-.1,1.7,.2,1.3,.5Z"/>
  <path d="M108.34,7.78c0,2.1,1.3,4.1,2.6,4.1,1.7,0,1.7-.5,.4-3.1-1.1-2-3-2.6-3-1Z"/>
  <path d="M112.74,9.38c.3,.9,.6,1.9,.6,2.1s.7,.4,1.5,.4c.9,0,1.2-.6,.8-1.8-.5-1.4-.3-1.3,1,.3,.8,1.1,1.9,1.7,2.3,1.2,1.1-1.1-.9-2.7-4.1-3.3-2.2-.4-2.6-.2-2.1,1.1Z"/>
  <path d="M2.34,26.58c0,.5-.7,4.8-1.5,9.7C-.06,42.08-.26,45.68,.34,46.78c.8,1.3,.9,1.2,1-.9,0-1.8,.3-2.1,1.2-1.2,1.8,1.8,3.9-1.7,2.5-4.3-.9-1.7-.8-1.8,.4-.8,1.3,1,1.4,.7,1.1-2.2-.2-1.9-.8-3.3-1.2-3s-.8-.1-.7-.8c.1-4.3-.4-7.7-1.3-7.7-.5,0-1,.3-1,.7Z"/>
  <path d="M25.44,39.48c-3.1,2.6-3.1,1.8-.5,15.9,2.1,10.8,3.3,14.5,5,14.5,.7,0,1.6,1.1,2,2.5,.5,2.1,1.2,2.5,4.6,2.5,3.2,0,3.9-.3,3.6-1.7-.2-1-1.6-2.4-3.1-3.1s-3.2-2.3-3.9-3.5c-1.4-2.5-1.7-19.2-.5-24.8,.7-3.4,.6-3.7-1.8-4.2-1.8-.3-3.5,.3-5.4,1.9Z"/>
  <path d="M110.54,41.08c-1.6,1.6-1.5,3.5,.3,4.2,1.1,.4,1.5-.2,1.5-2.4,0-3.4-.1-3.5-1.8-1.8Z"/>
  <path d="M113.34,42.78c0,3.3,.6,3.7,3,2.1,1.1-.7,1.2-1.4,.4-2.7-1.8-3-3.4-2.7-3.4,.6Z"/>
  <path d="M5.54,66.98c-1.5,6.4-1.5,6.9,.2,6.9,.9,0,1.6,1.2,1.8,2.7,.3,2.6,.7,2.8,5,3.1,4.6,.3,4.7,.2,3.9-2-.6-1.7-1.6-2.3-3.7-2.2-1.6,0-2.1-.1-1.2-.3,1.5-.4,1.5-.6,0-3.3-.9-1.6-2.4-3.1-3.2-3.4-1.2-.3-1.1-.4,.2-.5,.9,0,2-1,2.3-2.2,.8-2.3,.7-2.4-2.1-3.3-1.8-.5-2.2,0-3.2,4.5Zm4.3-1.3c-.3,.3-1.1,0-1.8-.7-.9-1-.8-1.1,.6-.5,1,.3,1.5,.9,1.2,1.2Z"/>
</svg>