<?xml version="1.0" encoding="UTF-8"?>
<svg id="Layer_1" data-name="Layer 1" xmlns="http://www.w3.org/2000/svg" viewBox="0 0 78 98">
  <defs>
    <style>
      .cls-1 {
        fill: #fef9f9;
      }

      .cls-1, .cls-2, .cls-3, .cls-4 {
        fill-rule: evenodd;
      }

      .cls-2 {
        fill: #fef9f8;
      }

      .cls-3 {
        fill: #e92011;
      }

      .cls-4 {
        fill: #fff;
        stroke: #e92011;
        stroke-miterlimit: 10;
        stroke-width: 1.04px;
      }
    </style>
  </defs>
  <path class="cls-3" d="M45,4c4.59,1.63,8.92,3.79,13,6.5-1.63,.49-3.3,.66-5,.5-.17,8.01,0,16.01,.5,24,1.67,15.43,3.67,30.76,6,46,.5,4.66,.67,9.32,.5,14h18v3H0v-3H17c2.1-20.33,4.26-40.66,6.5-61,.5-7.66,.67-15.33,.5-23-1.7,.16-3.37,0-5-.5,6.82-3.24,13.49-6.74,20-10.5,2.41,.86,4.41,2.19,6,4Z"/>
  <path class="cls-2" d="M28,25.56c7.34-.17,14.67,0,22,.5-3.54,5.59-7.21,11.09-11,16.5-4.22-5.32-7.88-10.99-11-17Z"/>
  <path class="cls-2" d="M39,49.06c3.79,5.41,15.53,39.92,19.07,45.51-7.33,.5-32.31,.69-39.65,.52,3.12-6.01,16.37-40.71,20.58-46.03Z"/>
  <g>
    <path class="cls-4" d="M25.93,27c4.87,5.59,9.23,11.59,13.07,18-6.2,8.53-12.19,17.2-17.97,26,.48-14.8,2.11-29.46,4.9-44Z"/>
    <path class="cls-4" d="M56.97,71c-5.77-8.8-11.76-17.47-17.97-26,3.84-6.41,8.2-12.41,13.07-18,2.79,14.54,4.42,29.2,4.9,44Z"/>
  </g>
  <path class="cls-1" d="M38.62,2c5.16,6.46,9.76,13.36,13.81,20.72-8.95,1.02-17.9,1.02-26.86,0,4.55-6.8,8.9-13.7,13.04-20.72Z"/>
</svg>