<?xml version="1.0" encoding="UTF-8"?>
<svg id="Layer_1" data-name="Layer 1" xmlns="http://www.w3.org/2000/svg" viewBox="0 0 72.49 67.41">
  <defs>
    <style>
      .cls-1 {
        fill: #f50;
      }
    </style>
  </defs>
  <path class="cls-1" d="M32.05,12.76l-3.5,10.7-12.8,.3-12.8,.3,10.1,8c5.6,4.5,10.1,8.3,10.1,8.6,0,.4-1.6,5.5-3.5,11.4-1.9,6-3.5,11.3-3.5,11.9s4.5-2.3,9.9-6.4l9.9-7.5,10.2,7.5c5.6,4.1,10.4,7.3,10.6,7.1s-.3-2.3-1.1-4.7-2.6-7.8-3.9-12l-2.4-7.7,10.1-7.9,10.1-7.9-13-.3-13-.3-3.3-10.2c-1.8-5.6-3.6-10.5-4-10.9s-2.3,4.1-4.2,10Z"/>
</svg>