<?xml version="1.0" encoding="UTF-8"?>
<!DOCTYPE svg PUBLIC "-//W3C//DTD SVG 1.1//EN" "http://www.w3.org/Graphics/SVG/1.1/DTD/svg11.dtd">
<svg xmlns="http://www.w3.org/2000/svg" version="1.1" width="209px" height="212px" style="shape-rendering:geometricPrecision; text-rendering:geometricPrecision; image-rendering:optimizeQuality; fill-rule:evenodd; clip-rule:evenodd" xmlns:xlink="http://www.w3.org/1999/xlink">
<g><path style="opacity:0.992" fill="#0e70ff" d="M 79.5,-0.5 C 91.1667,-0.5 102.833,-0.5 114.5,-0.5C 148.572,3.7361 174.739,20.4028 193,49.5C 199.316,60.7861 204.483,72.4527 208.5,84.5C 208.5,95.5 208.5,106.5 208.5,117.5C 203.742,151.848 186.742,178.348 157.5,197C 147.806,202.682 137.806,207.515 127.5,211.5C 118.167,211.5 108.833,211.5 99.5,211.5C 39.9277,207.924 6.59438,176.591 -0.5,117.5C -0.5,105.167 -0.5,92.8333 -0.5,80.5C 11.4288,38.9047 38.0955,11.9047 79.5,-0.5 Z"/></g>
</svg>
