<?xml version="1.0" encoding="UTF-8"?>
<svg id="Layer_1" data-name="Layer 1" xmlns="http://www.w3.org/2000/svg" viewBox="0 0 90 90.06">
  <defs>
    <style>
      .cls-1 {
        fill: #525de6;
        fill-rule: evenodd;
      }
    </style>
  </defs>
  <path class="cls-1" d="M43.5,.05c1.05-.15,2.05,.02,3,.5l21,21c-2.31,.5-4.64,.66-7,.5-1.01,6.4-2.34,12.73-4,19-2.27-5.84-4.1-11.84-5.5-18-4.07-.96-8.23-1.3-12.5-1-2.13,6.89-3.96,13.89-5.5,21-1.65-6.19-2.98-12.52-4-19-1.79-1.6-3.95-2.43-6.5-2.5C29.7,14.51,36.7,7.35,43.5,.05Z"/>
  <path class="cls-1" d="M0,46.05c5.25-6.76,11.08-13.09,17.5-19,3.02,11.56,5.52,23.22,7.5,35,4.6,.3,9.1-.03,13.5-1,1.7-7.8,3.87-15.47,6.5-23,2.21,7.69,4.54,15.36,7,23,4,1.33,8,1.33,12,0,2.83-11.65,5.67-23.32,8.5-35l17,17c.67,1,.67,2,0,3l-43.5,43.5c-1.33,.67-2.67,.67-4,0-1.21-1.38-33.04-33.21-42-43.5Z"/>
</svg>